<?xml version="1.0" standalone="no"?>
<!DOCTYPE svg PUBLIC "-//W3C//DTD SVG 20010904//EN"
 "http://www.w3.org/TR/2001/REC-SVG-20010904/DTD/svg10.dtd">
<svg version="1.0" xmlns="http://www.w3.org/2000/svg"
 width="612.000000pt" height="612.000000pt" viewBox="0 0 612.000000 612.000000"
 preserveAspectRatio="xMidYMid meet">
<metadata>
Created by potrace 1.11, written by Peter Selinger 2001-2013
</metadata>
<g transform="translate(0.000000,612.000000) scale(0.100000,-0.100000)"
fill="#000000" stroke="none">
<path d="M2960 5817 c-25 -7 -67 -28 -93 -46 -51 -35 -54 -35 -146 -11 -48 12
-91 6 -133 -18 -25 -15 -30 -14 -88 17 -57 30 -68 33 -135 29 -68 -3 -78 -6
-142 -51 -49 -34 -78 -47 -103 -47 -77 0 -117 -21 -177 -94 -14 -17 -31 -26
-50 -26 -89 0 -183 -65 -226 -156 -15 -33 -31 -66 -36 -74 -4 -8 -35 -30 -67
-48 -69 -39 -90 -62 -105 -117 -7 -25 -31 -61 -65 -97 -76 -80 -104 -143 -104
-239 0 -50 7 -96 20 -135 l21 -59 -33 -63 c-42 -84 -43 -159 -2 -247 25 -52
28 -73 29 -160 1 -55 7 -122 14 -150 13 -50 16 -265 5 -309 -9 -38 16 -344 44
-531 25 -169 27 -198 24 -485 -2 -335 3 -407 53 -675 18 -99 37 -200 40 -225
4 -25 12 -53 17 -64 5 -10 16 -61 24 -115 23 -152 79 -389 113 -476 66 -170
143 -267 339 -423 148 -118 201 -152 405 -260 397 -210 376 -203 666 -205 187
-2 214 0 291 21 111 30 206 71 315 133 146 84 493 336 576 418 138 139 220
288 268 493 43 181 109 531 117 623 3 44 10 87 15 96 4 8 15 68 23 133 9 65
20 134 25 154 6 20 10 93 11 162 0 69 1 141 1 160 1 19 -2 104 -5 188 -5 139
-3 172 27 360 30 198 32 220 32 517 l1 310 26 55 c23 46 27 68 26 135 -1 69 3
89 27 140 23 49 29 74 29 136 1 67 -3 82 -33 140 -25 46 -37 83 -41 130 -5 46
-14 77 -30 99 -19 27 -25 52 -31 129 -11 156 -44 211 -165 267 -60 28 -73 39
-89 74 -23 52 -64 86 -118 101 -32 8 -58 28 -112 84 -38 40 -85 81 -104 90
-35 17 -96 22 -187 14 -49 -4 -54 -2 -97 39 -40 36 -53 42 -91 42 -39 0 -50 5
-89 44 -58 56 -102 71 -176 60 -31 -4 -99 -8 -151 -9 -52 -1 -112 -5 -132 -10
-29 -6 -49 -3 -85 13 -65 27 -129 34 -183 19z m680 -1417 c136 -12 317 -37
380 -52 157 -37 288 -98 360 -168 72 -70 90 -140 90 -352 l0 -152 34 -65 c19
-37 55 -138 81 -226 41 -138 46 -167 41 -215 -10 -85 -38 -115 -84 -91 -62 33
-109 36 -497 36 -389 0 -480 -6 -628 -39 -63 -15 -98 -29 -138 -58 -13 -9 -30
-7 -75 7 -79 25 -192 25 -271 1 l-63 -19 -47 23 c-27 12 -57 26 -68 31 -29 11
-145 29 -193 29 -22 0 -44 4 -47 10 -3 5 -16 10 -28 11 -62 2 -224 8 -415 14
-117 5 -209 12 -205 16 14 14 219 39 320 39 113 0 229 -13 359 -40 50 -10 118
-22 151 -25 55 -7 63 -5 83 15 20 20 22 30 17 83 -3 36 -13 70 -25 86 -43 58
-222 96 -452 94 -295 -1 -499 -80 -540 -209 -14 -46 -34 -64 -70 -64 -49 0
-124 -32 -157 -66 -32 -34 -48 -41 -56 -26 -3 4 -8 51 -11 105 -7 94 -6 100
23 160 16 34 43 102 60 151 17 49 48 120 67 157 l36 68 -7 199 c-7 189 -6 200
13 239 45 87 174 168 347 217 164 47 333 69 680 90 119 7 823 -3 935 -14z
m-1415 -1410 c116 -5 243 -14 284 -20 41 -6 89 -8 107 -4 47 9 78 -1 118 -37
55 -48 65 -102 53 -294 -3 -49 -6 -100 -6 -112 -1 -33 -49 -83 -100 -105 -29
-12 -88 -23 -161 -29 -132 -11 -654 -2 -715 13 -22 5 -51 12 -65 15 -14 3 -27
9 -30 12 -3 3 -14 11 -25 17 -44 23 -58 77 -67 265 -10 199 -5 224 53 255 40
20 218 44 289 38 30 -2 150 -9 265 -14z m2233 -20 c69 -39 76 -64 68 -243 -9
-200 -31 -271 -92 -298 -75 -33 -223 -48 -499 -50 -281 -1 -369 5 -452 32 -72
22 -81 28 -108 63 -22 29 -28 51 -37 138 -14 141 -7 251 18 285 40 54 64 63
184 74 150 15 491 26 705 25 161 -1 172 -2 213 -26z m-1283 -94 c18 -8 38 -23
44 -34 6 -11 14 -107 17 -214 l7 -193 51 -48 c116 -110 177 -122 626 -122 351
0 430 7 537 47 34 12 64 33 86 59 45 52 59 51 51 -3 -4 -24 -8 -50 -8 -58 -1
-8 -4 -18 -8 -21 -5 -3 -17 -74 -29 -159 -13 -101 -30 -180 -49 -232 -49 -134
-180 -363 -203 -355 -7 2 -14 19 -17 37 l-5 34 -16 -24 c-8 -14 -18 -33 -22
-43 -12 -32 -89 -127 -103 -127 -8 0 -19 12 -25 28 l-11 27 -16 -40 c-32 -77
-53 -86 -72 -31 -34 105 -120 176 -245 201 -86 18 -122 17 -425 -11 -185 -18
-426 -15 -655 7 -77 8 -187 14 -245 13 -91 0 -112 -4 -162 -26 -75 -35 -143
-104 -179 -184 -16 -35 -33 -64 -38 -64 -11 0 -44 70 -60 128 -16 56 -44 59
-35 3 14 -88 -53 -44 -114 74 -35 67 -36 69 -42 40 -9 -48 -32 -41 -72 22 -57
90 -106 203 -128 300 -12 48 -25 99 -30 113 -9 25 -18 78 -26 160 -2 25 -8 68
-13 95 -9 46 -5 105 6 105 2 0 19 -11 36 -24 51 -38 108 -63 169 -75 191 -35
630 -39 833 -7 149 24 185 39 243 100 58 61 59 65 65 283 5 163 12 183 80 213
51 23 154 26 202 6z m596 -1484 c37 -21 60 -64 66 -125 9 -94 -8 -132 -103
-224 -181 -176 -377 -219 -500 -110 l-48 42 -128 3 -129 4 -36 -33 c-63 -55
-114 -71 -207 -67 -111 4 -184 40 -300 149 -99 93 -118 123 -119 190 -1 73 36
138 97 168 l48 24 152 -22 c83 -13 225 -27 316 -33 91 -5 176 -10 190 -11 59
-4 284 16 390 34 63 11 135 22 159 24 23 2 46 6 49 9 9 9 74 -5 103 -22z"/>
<path d="M3558 3371 c-200 -44 -230 -65 -236 -166 -7 -109 4 -111 258 -65 276
51 487 51 689 -1 89 -23 103 -16 78 36 -26 56 -94 122 -152 150 -89 42 -167
55 -365 60 -158 4 -198 2 -272 -14z"/>
</g>
</svg>
