    <svg xmlns="http://www.w3.org/2000/svg" viewBox="0 0 361.45 557.67">
<path
        d="M343.51 329.6c.24 2.37.47 4.73.71 7.09-2.16 6.12-3.79 12.29-2 18.82l-.42 3c-1.38 2.51-2.94 5-1.53 8-.09 1.33-.17 2.65-.25 4-2 1.07-1.85 2.47-.64 4l-.32 3c-1.43.37-1.6 1.34-1.22 2.57-.16 1.49-.31 3-.47 4.48-2.75 1.19-2.06 3.05-1 5l-.39 6c-1.75.91-1.46 1.59.23 2.13-3.58 17.9-6.84 35.86-10.82 53.67-6 26.69-21.19 47-43.69 62.32-14.77 10-28.55 21.51-44.39 30-19.53 10.47-40.1 16-62.35 13.46-6.62-.74-13.3 0-19.88-1.48-8.73-2-16.63-5.81-24.18-10.35a177.77 177.77 0 00-18.43-9.94c-19.78-8.94-36.64-22.4-52.61-36.53-13.61-12-21-28.7-25.18-46.47-3-12.56-5.88-25.14-7.11-38-.34-3.51-2.57-6.3-3.07-9.85-1.91-13.54-5-26.91-7.23-40.37-2-12-3.28-24.22-2.64-36.7.94-18.64 1.57-37.52-1.3-56-3.74-24.18-6.8-48.37-4.5-72.79a57.51 57.51 0 00-2.55-23.75c-.6-1.85-1.12-4.17-.54-5.88 2.57-7.6.3-14.05-3-20.93-4.39-9.08-3.42-18.28 2.6-26.72 1.75-2.45.87-5.07-.09-7.6-6.2-16.42-3.28-28.67 9.76-40.62 2-1.86 3.92-4 4.3-6.56 1.21-8.1 6.92-11.79 13.64-14.27a6.94 6.94 0 004.81-5c4.07-13 12.31-20.91 26.45-21.68 2.07-.11 3.52-1.42 4.66-3.28 3.74-6.1 9.56-8.69 16.44-8.51 3.87.11 6.62-1.32 9.33-3.75 9.66-8.64 21.47-9.17 32.14-1.4a4.27 4.27 0 005.46.07c6.27-4.14 12.7-3 18.95-.31 2.69 1.17 4.43 1 6.63-.88 9.69-8.14 20.25-10 31.74-3.89 2.9 1.54 5.69 2 8.9.35a12.81 12.81 0 019.7-.62 18.78 18.78 0 0011.51-.31c8.71-2.76 17.17-1.59 23.4 6.27 2 2.57 4.3 3.68 7.76 3.13 4.67-.74 7.72 2.5 10.52 5.6 2.53 2.8 4.89 4 9.08 3 12.13-3 22.26.34 29.39 11.16a16.15 16.15 0 0010.61 7.5c6 1.24 9.86 5.44 12 11a7.37 7.37 0 005 5c12.45 3.66 19.07 11.72 20 24.64a54.23 54.23 0 01.09 6.5c-.19 3.74.3 7 3 10.09s3.06 7.3 3 11.31a14.49 14.49 0 002.64 8.87c6.61 9.66 6.9 19.81 1.81 30.1-2.6 5.26-3.82 10.51-2.66 16.34.93 4.66-1 8.79-3 12.83-1.47 2.94-3.39 5.77-2.57 9.35l1 39c-.49 19.87-4.8 39.29-7.07 59-1.89 1.32-.58 3.7-1.87 5.35-2.32 2.95-.95 4.41 2.36 4.74a7.47 7.47 0 01-.13 4.85c-1.61 0-2.56.73-2.42 2.42.31 3.73.33 7.54 1.12 11.17a29 29 0 01.22 12.8c-.37 1.37-.88 3.04.56 4.46zm-25-56c1-.41 2.36.46 3-1l3.9 1.14 8.07 6.53c.12 1.42.64 2.9 2.24 1.83 1.37-.91 1.06-2.49-.33-3.58-.71-3 2.1-5.9.28-8.94l.48-11c3-4.25 1.46-9.32 2.55-13.91 1.34-.33 2.26-.81.71-2.12l.2-8c1.67-6.26.41-12.63.74-18.95 1.59-1.65 2-3.12-.65-4.12 0-.65-.09-1.3-.14-1.95v-4.08a6 6 0 00.92-3.93v-3.94c-.08-1.4.51-3-.94-4-.12-1.8.08-3.54-.79-5.33-2.48-5.1-1.53-9.32 2.18-13.62 4.21-4.88 6.25-10.29 3.34-16.74-1.26-2.8-1.95-6.71-.05-8.59 5.9-5.79 6.28-12.46 5.4-19.95-.75-6.44-2.93-7.56-9.05-3.86-3-.4-3.78-2-2-4.4 2.59-3.4 3.19-7.59 4.6-11.42.84-2.29 1.59-5.74-1-7.35-2.84-1.76-5.18-4.62-8.94-4.83a3.51 3.51 0 01-3.49-3c-.24-2.23 1.87-2.51 3.42-2.74 2-.3 3.89-1.16 4-3.06.34-4.36 1.29-8.83-.6-13.11-1.64-6.15-5.82-9.29-12-10.09-1.42-2.64-2.84-2.69-4.26 0-2.34.52-3.58 2.34-4.87 4.12-3 .18-2.65-1.88-3-3.94-.79-4.07 2-8.05.09-12.06-.57-3.28-2.77-4.21-5.77-4.07-2.79.14-2.23 2.34-2.56 4-2 .16-1.51 2.25-2.46 3.21s-1.48 3.12-3.59 2.72c-2.35-.44-1.37-2.54-1.83-3.93.45-3.88-.87-7.48-1.66-11.18-2.2-10.19-11.5-16.15-21.33-13.64-3.85 1-5.16 2.73-2 6 1 4.94 2.31 9.88.18 14.85-2.09.15-2.51-1.14-3.19-2.88-3.58-9.18-10.13-13-19.79-10.06a34.41 34.41 0 01-3.82.76c-.24-1.82-.24-3.59 1.45-4.82 1.33-1 2.68-1.87 2.51-3.8a24.53 24.53 0 012.84-.89c1.48-.3 3-.35 3.06-2.49a4.67 4.67 0 00-1.75-3.93c-1.71-1.42-2.74.17-3.92.88-5.47 3.32-7.6 2.8-10.3-3.18-4.32-9.57-13-13.55-21.16-5.16-2.26 2.32-5.5 2.71-7.5.21-2.18-2.73-4.63-2.81-7.48-2.66-3.73.5-2.6 3.44-3 5.74-.46 2.48 1.76 5.73-1.95 7.36-3.34-3.8-6.82-7.49-10-11.42-4.87-6-17.65-6.45-23-.61-2.13 1.33-2.82 3-1 5.07a2.82 2.82 0 003.06 2.91l2 2a10.37 10.37 0 004.87 10.07v5.94h-3.88c-4.3-9-10.94-11.26-19.22-6.57-1.59.9-3.22 1.71-4.84 2.57-2.69-.57-1.75-1.9-.95-3.57 1.56-3.27 4.76-4.83 7.09-7.28.64-.13 1.53-.31 1.25-1.1-1.08-3-2.53-5.7-5.76-7-5.42-2.27-8.5-1.53-13.63 3.5-3.79 3.72-7.46 3.73-9.76-.51s-6-5.85-10.22-7a3.4 3.4 0 00-5 .06c-5.22.84-8.17 4.27-10.13 8.84-1.79.28-1.92 1.65-2 3l-1.8.22-3.14.08c-.66-.09-1.34-.12-2-.27-9.45-2.31-9.53-2.34-12.77 6.8-1.37 3.83-3.83 4.32-7.44 3.66-11.45-2.1-22.64 5.09-21.81 17.66.26 2.65 2.81 3.86 3.85 6.06.64 1.36 3 2.29 1.72 4.07s-2.94-.52-4.48-.19c-2.55-.58-5.08-1.21-7.63-1.75-4.39-.92-8.17.05-10.87 3.85-1.16 1.63-2.06 3.52-1.28 5.53.88 2.27 3.1 1.15 4.75 1.47 1.42 2 4.14 3.63 1.81 6.65-3.14.07-6.3-.06-9.42.25-3.86.39-7.55 1.33-8.61 5.92-3.06 1.36-3.8 4-3.89 7a1.8 1.8 0 00-1.8 2.12v1.92c-1.85 3-1.35 5.37 1.82 7.06l3.2 5.87c.35 4 3.89 4.56 6.61 5.73 2.13.92 2.28-1 2.36-2.55h2.92a2 2 0 002.44 1.81c3.29-.35 6.41.65 9.61 1-.88 2.17-2.82 1.78-4.61 2.08-5.08.87-8.59 3.46-10.3 8.7-1.79 5.49-.57 10.77 0 16.15-1.55 1.44-2.73 2.92-4.23-.4a42 42 0 01-3.88-13.13c-.12-1.2-.22-2.5-1.49-2.91-1.72-.55-2.21 1-2.87 2.12-3.86 6.46-2.44 16.11 2.84 23.27 4.18 5.69 4.51 7.11 1.08 13.16-2.18 3.86-2.58 7.9-.27 11.78 3.48 5.84 3.29 11.92 1.71 18.18v9l.12 7v10.95c.13 6-.86 12 .69 18q.27 5.4.55 10.8a1.85 1.85 0 001.07 2.53c.52 1.48-.45 3.25.9 4.56-.12 2.7-.23 5.4-.35 8.11-1.36 1.61-1.61 3.05.66 4.08.21 3.4.41 6.8.62 10.2 0 1.81-1.29 4.73.87 5s3.79-2.1 3.8-4.74c0-.32 0-.64-.08-1l.92-1.75 2.08.05c1.21.1 2.06.58 2.1 1.95-.45 1.47-2.18 2.31-2 4.09a7.48 7.48 0 00-1 2.14 133.76 133.76 0 00-.72 21.74c-1.06 6.7.95 13.43-.16 20.13-.1 2.08-.24 4.16 1 6 .33 1 .67 2 1 3-.18 2.17.39 3.8 2.89 4.06l1.11.89 2 2c.26 2.47 2.13 2.75 4 3 .72 1.12 1.84.87 2.89.83.64 1.46 1.9 1.26 3.12 1.17l4.92.19c1.12 3 3 2.23 5 1l1.95.06c1.63 3.16 3.84 2 6.06.83h9.06l6.92.2c.36 1.37 1.34 1.75 2.63 1.75h25.95c1.31 0 2.26-.41 2.59-1.79l3.91.05 6-.06h2c4.09 1.72 7.85 1.51 11.1-1.84l.9-.15a18.75 18.75 0 009.89-2.1c3.66-.64 7.12-1.56 8.13-5.88.05-.6.1-1.21.16-1.82a2 2 0 001.92-2.11 1.82 1.82 0 001.8-2.13v-2.92q0-3 .05-6v-22.27c-.05-4.4-.51-8.87 4.12-11.58 1.05-.05 2.16.07 2.9-1l2-.15 5.09-1.18h1.8c7 .67 14.15-.59 21.1 1.23l4.8 1.2 1.24 1.76c.05 11.2 1.59 22.36 1 33.58-.07 1.5-.15 3.07 1.86 3.5.38 2-.7 4.19 1 5.93l.09 2a1.88 1.88 0 001.95 2c2.16 2.68 5.2 4.14 8.05 5.86l2.95.28a1.81 1.81 0 002.09 1.77l5 .11.91.1c.32 1.86 1.69 1.88 3.13 1.8l5 .05c1 1.21 2 1.23 3 0l11.89.12c.39 1.65 1.63 1.81 3 1.81h28.11c1.4 0 2.66-.14 3.07-1.79l5.9-.13h6c1.45 1.27 2.83 1.36 4.07-.29l4.63-.06c1.93 0 4.33 1.48 5.36-1.6l3.9-.16c1.42.06 2.83.09 3.11-1.81a6.76 6.76 0 003.9-1.18c3.38-.19 6.19-1.19 7-5 1.69-3.18 3.62-6.26 3.76-10q.1-9.46.23-18.94c2.12-5.58.73-11.38 1-17.07.09-2.31 1.08-5-1.09-7-.9-6.76-3.14-8.72-11.82-10.34-2-2.09-4.21-3-7-1.66l-54 .18-6-.14c-.64-1-2.17-1.45-2-3l1-1.51c.66 0 1.32-.11 2-.12 21-.39 42-.85 63.05.41l1.86.46c.37.6.74 1.2 1.12 1.8l-.12.1zm15 68c1.42-1.4 1.83-3.27-.32-3.7s-1.43 1.95-1.68 3.25c-2.35 1.19-1.94 4.66-4.61 5.58-2.17-.51-3.79.7-5.57 1.61a33 33 0 01-7.27 3.09c-14.59 3.31-29.58 2.59-44.36 4-12.42 1.19-24.78-1.26-37.17-1.93a51.71 51.71 0 01-20.9-5.15c-2-1-3.78-2.73-6.29-2.57v.05c.2-1.63-.5-2.28-2.11-2l.28-.23-.25.26c.49-2.74-2.61-3.58-3-6.36a254.23 254.23 0 01-1.68-34.5c.06-7.85-2.41-9.94-10.94-9.53l-11.09-.07c-9-2.42-15.65 2.59-16 11.46-.48 13.29 2.44 27-4 39.66-1.07.39-2.35.53-3.19 1.22-6 4.88-13.56 6.15-20.67 7.46-6.39 1.18-13.17 1.09-19.77 1.26-18.91.48-37.89.71-56.69-1.17-11.67-1.16-23.94-3.45-28.67-17.17-.3-.86-.77-1.59-1.74-1.2a1.94 1.94 0 00-1 1.46c.19 4.49-1.47 9.3 2.15 13.23a15.43 15.43 0 01.49 6c-1.59 3.41-.86 6.37 1.73 9q.22 3 .43 6c-1.37 1.2-.67 1.71.67 2l.34 3c-1.24.83-.95 1.48.23 2 .22 1 .44 2 .67 3-2.08 6.44.67 12.83 1.78 18.72 2.6 13.78 4 27.77 7.34 41.45 5 20.63 10.83 40.66 28.45 54.64 2.85 2.26 5.93 4.25 8.6 6.69 11.81 10.83 26.28 17.86 39 27.35.88.66 2.1 1.46 3.21.58s.4-2.13-.1-3.16c-1.84-3.81-1.16-7.64-.45-11.52a66.93 66.93 0 013.62 6.61c3 5.31 5.19 11.18 10.12 15.16.77.62 1.93 1.75 3.06.61.84-.84.16-1.9-.31-2.75-1.31-2.38-1.55-4.83-.71-8.46.72 3.42 2.64 5.1 3.91 7.14 3.27 5.25 6.57 11 13.8 11.68 8.07.78 16.14 1.82 24.23 2a208.7 208.7 0 0022.34-1 83.17 83.17 0 0012.69-2.28c6.62-1.62 9.13-7.46 12-12.76 1.51 2.31-.49 4.56.32 7.12 12-4 11.89-16.74 18.61-25.06a18.73 18.73 0 01-.24 10.45c-.31 1.07-.46 2.45.68 3.21a2.79 2.79 0 003.26-.32c6.38-4.34 12.66-8.85 19.2-13 8.3-5.23 15.81-11.47 23.31-17.71a73.15 73.15 0 0021.14-27.9c6.35-15.12 8.78-31.37 11.91-47.34 1-5.26 2.87-11 1.92-16.11-1.09-5.8 2.88-10 2.44-15.19-.12-1.35 1.7-2.81-.23-4a3.58 3.58 0 01.55-2.91 1.76 1.76 0 001.67-1.52c1.82-9.21 3.73-18.4 3.75-27.84l-.62-.78a1.21 1.21 0 00.15-1.78c.23-.7.45-1.41.67-2.11 2.83-.75 2.41-2.26.94-4-.06-.92-.06-1.92-.05-2.92z"
        fill="#060606"
      />
      <path
        d="M343.51 329.6c-1.44-1.4-.94-3.07-.58-4.68a29 29 0 00-.22-12.8c-.79-3.63-.81-7.44-1.12-11.17-.14-1.69.81-2.42 2.42-2.42a52.12 52.12 0 00.66 13.36c1.24 5.92-.09 11.83-1.16 17.71zM342.18 355.49c-1.75-6.53-.12-12.7 2-18.82 1.13 6.47-.46 12.64-2 18.82zM344.14 293.66c-3.31-.33-4.68-1.79-2.36-4.74 1.29-1.65 0-4 1.87-5.35.16 3.36.32 6.73.49 10.09zM340.23 366.51c-1.41-3 .15-5.52 1.53-8a12.7 12.7 0 01-1.53 8zM336.36 389.53c-1.09-1.94-1.78-3.8 1-5a5.72 5.72 0 01-1 5zM339.34 374.53c-1.21-1.57-1.33-3 .64-4a6.1 6.1 0 01-.64 4zM337.8 380.06c-.38-1.23-.21-2.2 1.22-2.57a2.78 2.78 0 01-1.22 2.57zM336.2 397.6c-1.69-.54-2-1.22-.23-2.13.08.73.15 1.44.23 2.13z"
        fill="#282828"
      />
      <path
        d="M325.44 273.77l-3.86-1.17c-1.13-1.45-2.59-1.21-4.09-.82l-1.86-.46c-1-2.54-4.28-1.78-5.66-3.81a5.34 5.34 0 01-1-1.12c-6.74-14.48-19.3-19.38-34-21.49-8.62-1.24-17.23-.66-25.82-1.2-11.64-.74-22.76 2.28-33.77 5.33-8.56 2.38-10.91 8.09-9.58 20.21-.21 1.58.49 2.29 2.07 2.18l3.7.65 1 3c-.59.59-1.8.4-1.94 1.55a7.57 7.57 0 00-5 2.06c-2-.42-3.11.59-3.62 2.44-2.27 1.55-4.48.39-6.49-.45a24.87 24.87 0 00-10-1.93 16.35 16.35 0 00-11.92 0 8.11 8.11 0 00-5 1l-2-.07c-1.31-1.5-1.84-.81-2.06.74l-1.96 1.19-4-.06-.13-.3h-.33c-.19-.54-.37-1.09-.55-1.64-1-3.4-4.4-3.49-6.88-4.72-1.51-.76-3.11-1-3.09-3.15 3.44-1.24 6.51-2.72 6.06-7.27-.57-5.62-.32-11.9-6.28-14.79a52.54 52.54 0 00-14.71-4.54c-22.27-3.45-44.41-3.53-65.87 4.64-7.6 2.89-13.6 8.08-15.78 16-.92 3.34-2 4.29-5 4.49a20.16 20.16 0 00-6.37 1.12c-3.92 1.66-9 1.41-11.27 6.06l-.92 1.75c-1.45.8-2.73 2.72-4.59.67-.21-3.4-.41-6.8-.62-10.2.39-1.46.49-2.87-.66-4.08.12-2.71.23-5.41.35-8.11 1.55-.15 1.52-1.6 2-2.55 6.23-12.27 8.35-26.34 16.48-37.79a3 3 0 00.54-1.9c-1.11-8.51.36-17.21-1.76-25.65a33.34 33.34 0 00.19-6c-1.32-9.08 2.8-15.31 9.59-20.85 9.34-7.64 20.41-11.06 31.65-14 19.09-5 38.76-6.25 58.33-7.22a752.4 752.4 0 0186.79.21c18.92 1.25 37.74 2.9 56.23 7.34a3.77 3.77 0 003.67 1.07l3.27 1a2.27 2.27 0 002.71 1 67.34 67.34 0 0118.61 10.55 2.29 2.29 0 002.23 1.88 2.52 2.52 0 002 2l2.42 3.8a2.83 2.83 0 001.16 2.64l.36 1.45a7.58 7.58 0 001.4 5.95c.22 1.69.45 3.37.67 5.06-.47 2-.8 4 .24 6l.27 14.92c-1.37 4.86-1.1 9.3 2.23 13.53 1.69 2.14 2.49 5 3.69 7.52a1.69 1.69 0 00.74 2l.55 1.92 8 27.13-.48 11c-1.43 4.58-3.34 8.13-8.82 4.15-.32-.09-.97.13-1.46.14z"
        fill="#fcfcfc"
      />
      <path
        d="M197.58 26.7c3.71-1.63 1.49-4.88 1.95-7.36.42-2.3-.71-5.24 3-5.74 0 2.1 1.75 3.08 2.89 4.46 5.91 7.09 5.85 7 13.62 2.69 4.21-2.34 8.24-2.22 12.28 1 5.14 4.17 9.67 9.79 17.42 9 .17 1.93-1.18 2.84-2.51 3.8-1.69 1.23-1.69 3-1.45 4.83-2.84.87-3.64 3.44-2.58 5.39.92 1.69 3.52 1 5.42.15 7.36-3.18 11.75-1.4 14.9 6a23.67 23.67 0 001.36 2.59c1.16 2 2.82 3.52 5.2 2.93s2.4-2.84 2.5-4.84c2.13-5 .81-9.91-.18-14.85 10.59-1.86 16.26 1.5 21.71 11.27 1.39 2.5-.29 6.2 3.26 7.55.46 1.39-.52 3.49 1.83 3.93 2.11.4 2.52-1.64 3.59-2.72s.45-3 2.47-3.21c1.28.09 2.5.11 3.49 1.27 2.32 2.75 3.6.74 4.83-1.21 1.91 4-.88 8-.09 12.06.4 2.06.06 4.12 3 3.94-2 3.12-1 4.31 2.49 4a31.92 31.92 0 0112.62 1.68c2.08.67 3.91 1.78 6 .28 1.89 4.28.94 8.75.6 13.11-.15 1.9-2 2.76-4 3.06-1.55.23-3.66.51-3.42 2.74a3.51 3.51 0 003.49 3c3.76.21 6.1 3.07 8.94 4.83 2.58 1.61 1.83 5.06 1 7.35-1.41 3.83-2 8-4.6 11.42-1.82 2.4-1.08 4 2 4.4a5 5 0 00.8 1.25c4.73 4.14 4.64 8.48-.62 11.69-2.05 1.25-2.15 3.22-3.07 4.91-1.26 2.3-2.09 4.86-5.37 5.29-6.85.89-10-.52-13.58-6.64-1.17-2-2.45-3.5-5-3.41-4.37.16-5.65-2.81-6.13-6.37-.22-1.64.11-3.36-.18-5-.25-1.42-.63-3.37-1.63-4-1.58-.94-2.58 1.08-3.45 2.11-5.47 6.44-12.53 6.54-19.55 4.2-3.66-1.22-5.86-2-8.6 1.61-2.09 2.77-6.59 2.42-8.69.72-2.58-2.11 1.65-3.46 2.5-5.35.28-.61.63-1.18.92-1.77a1.81 1.81 0 00-.17-2.29c-.89-.93-1.71-.57-2.62.07-8.55 6-16.07 2.2-19-6-1-3-2.94-3-5.37-3-5 .1-10.12.89-13.76-3.86a2 2 0 00-2.65-.71c-1 .61-.86 1.75-.75 2.71.39 3.45 2.84 5.5 5.32 7.5.77.62 2.76.22 2 2.08a3.64 3.64 0 01-3.06 2.27 6.5 6.5 0 01-4.31-.93c-1.74-1-3.3-1.29-4.93.34-2.48 2.49-5.41 2.08-8.31.84-5.69-2.44-11.12-3.6-16.87.43-2.46 1.73-5.85 3.31-9.11.37a4.17 4.17 0 00-5.15-.32c-3.83 2.34-7.45 1.36-10.63-1.13-4.28-3.35-9-2.84-13.77-2.09-2.11.33-4.15 1.16-6.26 1.49-1.08.17-2.66.13-3.28-.52-1-1.09.55-2 1-2.94 1.07-2.05 2.16-4.09 3.32-6.08.8-1.37 1.6-2.94 0-4s-2.09 1-3 1.82c-4.47 4.11-9.38 7.32-15.61 4.35-4.5-2.15-7.38-1.2-9.64 3.05-4 7.5-16.3 9.09-22 1.73-2.29-3-5.2-3.87-8.77-3.39-5.06.69-9.54-.46-13.07-4.41-.65-.73-1.43-1.59-2.54-1.15s-1.4 1.7-1.5 2.91c-.32 4.1 2.41 6.74 4.52 9.68 2.31 3.23 1.74 5.67-2 6.8a4.88 4.88 0 00-3.77 3.3c-2.44 6.17-5.26 7.18-11.2 4.51-8.14-3.65-12.18-2.54-17.18 4.7-2.86 4.15-7.1 5.25-11 2.11a11.5 11.5 0 00-8.25-2.53c-.61-5.38-1.83-10.66 0-16.15 1.71-5.24 5.22-7.83 10.3-8.7 1.79-.3 3.73.09 4.61-2.08-3.15-4.61-7.89-2.51-12-2.84h-2.92c-2.58-2.21-5.79-2.65-9-3.18-1.07-2-2.13-3.92-3.2-5.87-.79-2.31-.32-4.94-1.82-7.06v-1.92c1.27-.14 2-.77 1.8-2.12.09-3 .83-5.65 3.89-7 5.89.79 11.3-1.81 17-2.49 1.25-.15 5.49-1.12 1-3.68 2.33-3-.39-4.66-1.81-6.65 2-5.12 6.63-6.19 11.3-7.06 1.5-.29 3.44.42 3.73-2 1.54-.33 3.24 2 4.48.19s-1.08-2.71-1.72-4.07c-1-2.2-3.59-3.41-3.85-6.06a9.49 9.49 0 002.11-1.15c7.34-6.85 15.2-11.85 26-11.16 6 .39 11.35-1.72 15.13-8a15.81 15.81 0 0117-7.73c4.85.93 9.71 1.94 14.44 3.33s8.79 2.06 12.83-2.6c5.31-6.11 7.91-5.92 14.89-1.6.57.35 1.17.64 1.76 1-2.33 2.45-5.53 4-7.09 7.28-.8 1.67-1.74 3 .95 3.57-1.28 2.56-4.71 3.94-4 7.62.28 1.5.32 3.22 1.8 3.84s2.16-1.16 3.18-1.91a65.31 65.31 0 016.6-4.6c2.77-1.55 5.61-2.59 8.65.05a11.26 11.26 0 012.61 13c-.65 1.48-1 2.89.17 4.16 1.36 1.44 2.31-.06 3.43-.62 5.94-3 9.63-4.74 17.66 3.07 2.63 2.56 5.07 3.27 7.83 1 6.37-5.29 10.43-3.77 16.16 0 1.11.74 2.06 3.12 3.53 1.62 1.2-1.23.79-3.31-.36-5-4.63-7-10.54-9-18.34-5.94-2 .78-3.57 1.38-5.19-.84-3.14-4.29-7.61-6.24-12.89-6.29-1.63 0-3-.42-3.66-2 .32-1 .63-2 .94-3v-5.94c.22-4.25-.37-8.1-4.87-10.07l-2-2c-.15-1.88-1.09-2.93-3.06-2.91-1.79-2.12-1.1-3.74 1-5.07-.28 3.08.29 4.17 3.83 2.79a13.52 13.52 0 0111.47.63c4.86 2.46 8.45 6.28 12.42 9.75 2.1 1.7 4.54 3.84 5.27-1.29zm110 77.9c0 .5 0 1 .05 1.49.07 1.34.08 3 1.82 2.95s.75-1.89 1.23-2.8c2.47-4.66 1.42-9.22-.06-13.86-1.83-5.72-9.62-11.74-15.23-10.51-3.89.85-5.19-.76-6.9-3.41a15.3 15.3 0 00-20.43-5.33c-3 1.69-6.78 3.64-4.44 8.44-.12 3.32 1.36 4.39 4.64 3.73 7-1.41 11.82.69 15.09 6.54 1.78 3.19 4 4.21 7.7 3.57 7-1.22 9.18 0 12.55 6.26.85 1.71 1.61 3.33 3.98 2.93zm-179-50.82c.31-.55 1-1.2.87-1.64-1.22-4.52-3.59-8.64-8.17-9.87s-9.7-2.27-13.21 2.49-7.44 6.66-13.2 4.07c-1.51-.68-3.62-.31-5.41-.08-8.38 1.06-14.47 9.85-11.88 16.95-.52 2.07-1.45 4.24 1.3 5.52 2.27 1.06 3.31-.78 4.56-2a10 10 0 001-1.66 11.67 11.67 0 0115.68-3.54c6.15 3.88 6.9 3.72 10.91-2.23.46-.69.94-1.36 1.44-2 3.23-4.22 7.44-4.89 12-2.17 1.38.82 2.61 3.1 4.71 1.35 2.57-2.07-.5-3.44-.6-5.19z"
        fill="#2e2e2e"
      />
      <path
        d="M27.39 355.65a15.43 15.43 0 00-.49-6c.89-5.89 1.27-6.3 3.47-4.16 7.67 7.47 17.24 9.21 27.37 10.18 26.23 2.52 52.44 3.31 78.48-1.26 7.42-1.3 15.6-2.35 20.29-9.86 4.21-2.58 5.43-6.82 5.7-11.27.42-6.93.34-13.88.63-20.82.61-14.48.65-14.48 13.64-19l11.09.07c.91.39 1.79.84 2.72 1.15 4.51 1.51 6.62 3.9 6.68 9.36.1 9.61.05 19.24.4 28.85.17 4.58.95 9 5.87 11.08l.25-.26-.28.23a3.13 3.13 0 002.11 2v-.05c5.4 5.74 12.45 7.91 19.93 8.9 22 2.92 44.12 2.75 66.24 1.51 11.48-.64 22.81-2.2 33.41-7.09a14.86 14.86 0 007 1.58 1.21 1.21 0 01-.15 1.78c-.87 0-1.28.39-1.08 1.29l-3.76 28.74a3.58 3.58 0 00-.55 2.91c-1.67 4.5-3.19 9.05-5 13.48-4.08 9.88-9.8 18.88-15.49 27.88-.73 1.16-1.84 2.15-3.31 1.51s-1.23-2.15-1-3.48.78-2.63-.45-3.83a33.51 33.51 0 00-4.29 8.48.5.5 0 00-.37.78c-2.64 1.48-2.94 4.78-5.1 6.59-1.58 1.33-2.43 3.9-5 3.62s-1.19-3.31-2.9-5c-1.44 3.37-2.64 6.21-3.85 9.05l-.28.08v.29c-2.71 2.16-3.82 1.22-4.64-1.92-2.9-11.23-14.32-20.53-25.28-20.87l-1.74-.18c-2.28-1.26-4.81-1.31-7.27-1.2-10.58.46-21.14 1.23-31.69 2.38a278.79 278.79 0 01-47.57 1.09c-8.57-.53-17-2.67-25.67-2l-1.85-.1c-6.84-1.78-13.8-1.31-20.73-1.07-14.41.5-28.42 12.56-31.17 26.69l-3.32.21-1.21-1.63a5.49 5.49 0 00-2.36-4.49c-.06-.45-.13-.89-.2-1.33.62-2.07-.52-3.85-1-5.69-.45-1.55-.55-4.39-2.88-3.63-1.85.6-1.18 3-.29 4.61l-.12 3.41-1.64 1.72c-7.57-4.27-9.2-12.83-14.08-20.05.12 1.28.22 1.71.2 2.13-.09 1.81.22 4.12-1.77 4.78-2.25.76-2.8-1.67-3.86-3.08-4.78-6.4-8.12-13.51-11.24-20.84-3.19-7.52-3.87-15.64-6.46-23.27-.23-1-.45-2-.67-3a1.79 1.79 0 00-.23-2l-.34-3a1.76 1.76 0 00-.67-2q-.21-3-.43-6a34.66 34.66 0 00-1.75-8.98z"
        fill="#fbfbfb"
      />
      <path
        d="M74.64 440.54c.07.44.14.88.2 1.33 0 1.91-1.3 4.5 2.36 4.49l1.21 1.63c0 1.44 1.21 1.58 2.16 2 .18.87-.1 2.42 1.28 2 1.09-.31.8-1.56 0-2.36l-.1-1.89c2.75-14.13 16.76-26.19 31.17-26.69 6.93-.24 13.89-.71 20.73 1.07.1.72-.14 1.77.91 1.82s.86-1 .94-1.72c8.65-.7 17.1 1.44 25.67 2a278.79 278.79 0 0047.57-1.09c10.55-1.15 21.11-1.92 31.69-2.38 2.46-.11 5-.06 7.27 1.2 0 .76-.29 1.86.8 2s.86-1.05.94-1.78c11 .34 22.38 9.64 25.28 20.87.82 3.14 1.93 4.08 4.64 1.92.3 1.41.34 3.33 2.3 3.07a2.4 2.4 0 001.65-3.11c-.81-2.3-2.45.09-3.67-.33 1.21-2.84 2.41-5.68 3.85-9.05 1.71 1.73.42 4.77 2.9 5s3.42-2.29 5-3.62c2.16-1.81 2.46-5.11 5.1-6.59.19 2 1.45 2.82 3.3 2.75.23 0 .65-1.11.57-1.64-.31-2.08-1.61-2.59-3.5-1.89a33.51 33.51 0 014.29-8.48c1.23 1.2.72 2.53.45 3.83s-.58 2.81 1 3.48 2.58-.35 3.31-1.51c5.69-9 11.41-18 15.49-27.88 1.83-4.43 3.35-9 5-13.48 1.93 1.23.11 2.69.23 4 .44 5.19-3.53 9.39-2.44 15.19.95 5.07-.89 10.85-1.92 16.11-3.13 16-5.56 32.22-11.91 47.34a73.15 73.15 0 01-21.14 27.9c-7.5 6.24-15 12.48-23.31 17.71-6.54 4.12-12.82 8.63-19.2 13a2.79 2.79 0 01-3.26.32c-1.14-.76-1-2.14-.68-3.21a18.73 18.73 0 00.24-10.45c-6.72 8.32-6.58 21.09-18.61 25.06-.81-2.56 1.19-4.81-.32-7.12-2.86 5.3-5.37 11.14-12 12.76a83.17 83.17 0 01-12.69 2.28 208.7 208.7 0 01-22.34 1c-8.09-.21-16.16-1.25-24.23-2-7.23-.69-10.53-6.43-13.8-11.68-1.27-2-3.19-3.72-3.91-7.14-.84 3.63-.6 6.08.71 8.46.47.85 1.15 1.91.31 2.75-1.13 1.14-2.29 0-3.06-.61-4.93-4-7.13-9.85-10.12-15.16a66.93 66.93 0 00-3.62-6.61c-.71 3.88-1.39 7.71.45 11.52.5 1 1.28 2.22.1 3.16s-2.33.08-3.21-.58c-12.73-9.49-27.2-16.52-39-27.35-2.67-2.44-5.75-4.43-8.6-6.69-17.62-14-23.45-34-28.45-54.64-3.31-13.68-4.74-27.67-7.34-41.45-1.11-5.89-3.86-12.28-1.78-18.72 2.59 7.63 3.27 15.75 6.46 23.27 3.12 7.33 6.46 14.44 11.24 20.84 1.06 1.41 1.61 3.84 3.86 3.08 2-.66 1.68-3 1.77-4.78 0-.42-.08-.85-.2-2.13 4.88 7.22 6.51 15.78 14.08 20.05 1.94.59 1.94.59 1.64-1.72l.12-3.41c2.25-.18 2.13 1.38 2.09 2.87-.54 1.09-.59 1.92 1 1.89zm-19-10c-.89.12-2-.31-2.46.88-.07.19.45.85.76.9 1.32.23 1.57-.76 1.72-1.76.91-.19 2-.24 1.49-1.66-.12-.29-.71-.4-1.08-.59zm177 11.55c-15.76 4.22-31.88 5.38-48.1 5.81-.14-.73.1-1.86-1.07-1.73s-.74 1.2-.78 2c-3.91.94-7.53-.43-11.21-1.34-.07-.77.1-1.8-1.07-1.7-.32 0-.56 1-.84 1.51-15.83.82-31.42-1.08-46.89-4.29.26-.94 1.58-2.21-.43-2.57-1.64-.3-1.6 1.14-1.69 2.26-8.91-.69-15.6 2.36-18.9 11.18-3.1 8.29-1 15.06 5.24 21.24a127.07 127.07 0 0016.22 13.95c10.4 7.27 29.88 10.56 41-2.52a4 4 0 013.56-1.29c7.15.11 14.31.12 21.46.16 1.85 0 3.42.14 4.85 1.83 8.59 10.18 21.08 10.06 32.92 5.53 9.74-3.73 17.15-10.77 24.34-17.91 6.54-6.49 6.85-15 5-23.32-1.25-5.69-7.26-9.48-13.25-9.57-2.15 0-4.3.27-6.45.42-.09-1.35-.68-2.17-2.16-2s-1.81 1.11-1.74 2.36zM73.94 481.9c-1.87-9.85-3.9-19.68-8.59-28.74-.03 10.44 3.8 19.69 8.6 28.75zm199.28-4.43c-1.44 8.15-5.53 15.07-5.62 23.6 5.56-5.47 8.31-16.97 5.63-23.59zm-2.47-31.87c-3.38 3.31-5.61 7-9.5 8.77-1.46.65-3.11.53-1.85 2.78 1.1 2 2.1.72 3.18 0 2.74-1.85 5.29-4.57 8.31-5.28 4.46-1 4.53-1.82 1-4.21-.48-.31-.63-1.06-1.14-2.06zM97.32 461.14c.76-.1 1.28-.55 1.19-1.28-.26-2.18 1.65-4.08.77-6.29a1.29 1.29 0 00-1.17-.48c-2.49 1.21-.1 4.33-2.26 5.92-.6.45.4 1.77 1.47 2.13zm-10-11.16c1.09 3.42 1.72 5.39 4 6.16.23.08 1-.52 1-.79.01-2.53-1.85-3.54-4.97-5.37zm84.7 37.38a1.39 1.39 0 00-1.61-.74c-.62.09-1.46.14-1.24 1.07.17.74.92.83 1.57.75s1.39-.13 1.31-1.08zm-68.93-43.71c-.47.64-1 1.09-1.14 1.63-.18.9.59 1.12 1.19.78a2.79 2.79 0 001-1.45c.06-.15-.56-.53-1.02-.96zm124-20.37l-.83-.37c-.12.28-.39.62-.32.83s.51.26.79.38zm4 0l-.84-.37c-.11.28-.39.62-.31.83s.51.26.79.38zm-168 16l-.83-.36c-.12.28-.39.62-.31.82s.51.25.78.37zm140 56c-.28-.12-.62-.39-.82-.32s-.25.52-.37.79c.27.12.61.4.81.32s.38-.47.5-.78zm17.09.63c-.12.28-.4.62-.32.82s.51.26.79.38c.12-.28.39-.62.32-.81s-.39-.26-.67-.38z"
        fill="#1a1a1a"
      />
      <path
        d="M25.75 142.6a11.5 11.5 0 018.25 2.53c3.87 3.14 8.11 2 11-2.11 5-7.24 9-8.35 17.18-4.7 5.94 2.67 8.76 1.66 11.2-4.51a4.88 4.88 0 013.77-3.3c3.76-1.13 4.33-3.57 2-6.8-2.11-2.94-4.84-5.58-4.52-9.68.1-1.21.25-2.41 1.5-2.91s1.89.42 2.54 1.15c3.53 4 8 5.1 13.07 4.41 3.57-.48 6.48.41 8.77 3.39 5.68 7.36 18 5.77 22-1.73 2.26-4.25 5.14-5.2 9.64-3.05 6.23 3 11.14-.24 15.61-4.35.9-.82 1.37-2.87 3-1.82s.76 2.59 0 4c-1.16 2-2.25 4-3.32 6.08-.5.95-2.09 1.85-1 2.94.62.65 2.2.69 3.28.52 2.11-.33 4.15-1.16 6.26-1.49 4.78-.75 9.49-1.26 13.77 2.09 3.18 2.49 6.8 3.47 10.63 1.13a4.17 4.17 0 015.15.32c3.26 2.94 6.65 1.36 9.11-.37 5.75-4 11.18-2.87 16.87-.43 2.9 1.24 5.83 1.65 8.31-.84 1.63-1.63 3.19-1.37 4.93-.34a6.5 6.5 0 004.31.93 3.64 3.64 0 003.06-2.27c.73-1.86-1.26-1.46-2-2.08-2.48-2-4.93-4-5.32-7.5-.11-1-.28-2.1.75-2.71a2 2 0 012.65.71c3.64 4.75 8.81 4 13.76 3.86 2.43-.05 4.32 0 5.37 3 2.89 8.23 10.41 12 19 6 .91-.64 1.73-1 2.62-.07a1.81 1.81 0 01.17 2.29c-.29.59-.64 1.16-.92 1.77-.85 1.89-5.08 3.24-2.5 5.35 2.1 1.7 6.6 2 8.69-.72 2.74-3.64 4.94-2.83 8.6-1.61 7 2.34 14.08 2.24 19.55-4.2.87-1 1.87-3.05 3.45-2.11 1 .59 1.38 2.54 1.63 4 .29 1.62 0 3.34.18 5 .48 3.56 1.76 6.53 6.13 6.37 2.55-.09 3.83 1.38 5 3.41 3.54 6.12 6.73 7.53 13.58 6.64 3.28-.43 4.11-3 5.37-5.29.92-1.69 1-3.66 3.07-4.91 5.26-3.21 5.35-7.55.62-11.69a5 5 0 01-.8-1.25c6.12-3.7 8.3-2.58 9.05 3.86.88 7.49.5 14.16-5.4 19.95-1.9 1.88-1.21 5.79.05 8.59 2.91 6.45.87 11.86-3.34 16.74-3.71 4.3-4.66 8.52-2.18 13.62.87 1.79.67 3.53.79 5.33h-6c-7.42 0-7.81-.45-7-7.94a27.67 27.67 0 00-8.4-23.6c-8.46-8.17-17.89-15.72-30.17-17.12-3.43-.39-5.13-3.07-8.39-3.45-11.64-1.35-23.49-1.44-34.72-5.53-3.51-1.29-7.33.86-10.78.23-16.23-3-32.75-1.15-49-3.45-12-1.7-24 2.82-35.88 1.53-8.7-.95-16.51 2.61-24.77 2.11-7.41-.45-14.35 2.46-21.61 2.19-8.15-.3-16.19 1.33-23.69 3.5-10 2.88-20.2 5.52-28.89 12.39-6.2 4.9-11.71 9.74-15 17-1 2.27.26 4.9-1.17 6.76-3.21 4.21-3.1 8.62-1.38 13.2.95 2.54 0 3.82-2.34 3-4-1.34-7.85-.64-11.75.17 1.58-6.26 1.77-12.34-1.71-18.18-2.31-3.88-1.91-7.92.27-11.78 3.43-6.05 3.1-7.47-1.08-13.16-5.28-7.16-6.7-16.81-2.84-23.27.66-1.1 1.15-2.67 2.87-2.12 1.27.41 1.37 1.71 1.49 2.91a42 42 0 003.88 13.13c1.34 3.23 2.52 1.75 4.07.34z"
        fill="#0d0d0d"
      />
      <path
        d="M18.64 194.6c3.9-.81 7.72-1.51 11.75-.17 2.38.8 3.29-.48 2.34-3-1.72-4.58-1.83-9 1.38-13.2 1.43-1.86.15-4.49 1.17-6.76 3.26-7.27 8.77-12.11 15-17 8.69-6.87 18.93-9.51 28.89-12.39 7.5-2.17 15.54-3.8 23.69-3.5 7.26.27 14.2-2.64 21.61-2.19 8.26.5 16.07-3.06 24.77-2.11 11.85 1.29 23.88-3.23 35.88-1.53 16.27 2.3 32.79.49 49 3.45 3.45.63 7.27-1.52 10.78-.23 11.23 4.09 23.08 4.18 34.72 5.53 3.26.38 5 3.06 8.39 3.45 12.28 1.4 21.71 8.95 30.17 17.12a27.67 27.67 0 018.4 23.6c-.84 7.49-.45 7.94 7 7.94h6c1.45 1.07.86 2.63.94 4-4.06.22-8.19-.74-12.17.88-1.27.52-1.88 1.26-1.6 2.59s1.39.71 2.25.9c3.92.87 7.71-.05 11.54-.43a6 6 0 01-.92 3.93c-2.63 0-5.27.22-7.88 0-3.8-.28-5.65 1.13-5.16 5.07-.68 1.67-2 3.09-1.94 5.05-2.28 3-1.82-.29-2-1-.85-2.64 1.31-5.85-1.53-8.15l-.36-14.85a4.85 4.85 0 00-.24-6c-.22-1.69-.45-3.37-.67-5.06 1.41-2.42.47-4.29-1.4-5.95l-.36-1.45c.62-1.32.42-2.28-1.16-2.64l-2.42-3.8c.09-1.44-.56-2.13-2-2 0-1.51-.75-2.12-2.23-1.88a67.34 67.34 0 00-18.61-10.55c-.45-1.53-1.41-1.72-2.71-1l-3.27-1c-.77-1.91-2.17-1.67-3.67-1.07-18.49-4.44-37.31-6.09-56.23-7.34a752.4 752.4 0 00-86.79-.21c-19.57 1-39.24 2.24-58.33 7.22-11.24 2.93-22.31 6.35-31.65 14-6.79 5.54-10.91 11.77-9.59 20.85a33.34 33.34 0 01-.19 6c-2.67.44-1.6 2.59-1.56 3.94.17 6.4 1.34 12.74 1 19.17-.11 2 .11 4-2 5.22l-3-6.35c-2.36-8.85-2.36-8.84-11.5-8-1.16.11-2.33.06-3.49.08q-.03-4.63-.04-9.18z"
        fill="#121212"
      />
      <path
        d="M28.4 277.47c2.32-4.65 7.35-4.4 11.27-6.06a20.16 20.16 0 016.37-1.12c3-.2 4.08-1.15 5-4.49 2.18-7.95 8.18-13.14 15.78-16 21.46-8.17 43.6-8.09 65.87-4.64a52.54 52.54 0 0114.71 4.54c6 2.89 5.71 9.17 6.28 14.79.45 4.55-2.62 6-6.06 7.27-3.74-.57-7.51-.12-11.3-1.08a203.54 203.54 0 00-21.33-4.21 146.09 146.09 0 00-40.28-.55c-5 .68-10 1.72-15 2.6.07.43.13.85.2 1.28 7.48 0 15-.15 22.45.06 4.07.12 8.25-.87 12.22.85-1.3 1.61-3.09.89-4.66.9-13.14 0-26.3-.31-39.43.11-7 .23-14.28.73-20 5.83z"
        fill="#3f3f3f"
      />
      <path
        d="M151.72 25.8c-.59-.32-1.19-.61-1.76-1-7-4.32-9.58-4.51-14.89 1.6-4 4.66-8 4-12.83 2.6s-9.59-2.4-14.44-3.33a15.81 15.81 0 00-17 7.73c-3.78 6.26-9.09 8.37-15.13 8-10.85-.69-18.71 4.31-26 11.16a9.49 9.49 0 01-2.11 1.15c-.83-12.57 10.36-19.76 21.81-17.66 3.61.66 6.07.17 7.44-3.66 3.24-9.14 3.32-9.11 12.77-6.8.64.15 1.32.18 2 .27.24 1 .62 1.79 1.84 1.61 1-.15 1.12-.93 1.3-1.69l1.8-.22a2.57 2.57 0 002-3c2-4.57 4.91-8 10.13-8.84 1.68 1.42 3.35 1.47 5-.06 4.21 1.17 7.91 2.79 10.22 7s6 4.23 9.76.51c5.13-5 8.21-5.77 13.63-3.5 3.23 1.34 4.68 4.05 5.76 7 .23.82-.66 1-1.3 1.13z"
        fill="#3c3c3c"
      />
      <path
        d="M172.58 43.65c.71 1.61 2 2 3.66 2 5.28 0 9.75 2 12.89 6.29 1.62 2.22 3.19 1.62 5.19.84 7.8-3 13.71-1 18.34 5.94 1.15 1.73 1.56 3.81.36 5-1.47 1.5-2.42-.88-3.53-1.62-5.73-3.78-9.79-5.3-16.16 0-2.76 2.3-5.2 1.59-7.83-1-8-7.81-11.72-6.06-17.66-3.07-1.12.56-2.07 2.06-3.43.62-1.19-1.27-.82-2.68-.17-4.16a11.26 11.26 0 00-2.61-13c-3-2.64-5.88-1.6-8.65-.05a65.31 65.31 0 00-6.4 4.76c-1 .75-1.68 2.55-3.18 1.91s-1.52-2.34-1.8-3.84c-.7-3.68 2.73-5.06 4-7.62 1.62-.86 3.25-1.67 4.84-2.57 8.28-4.69 14.92-2.42 19.21 6.57.57 1.39 1.03 2.95 2.93 3z"
        fill="#3f3f3f"
      />
      <path
        d="M30.48 277.52c5.75-5.1 13-5.6 20-5.83 13.13-.42 26.29-.07 39.43-.11 1.57 0 3.36.71 4.66-.9l14.88.35c2.9 2.51 6 2 9.12.56l2.89.41c.94 2.15 2.39 2 4.06.89a47.2 47.2 0 0110.92 1.17c.47 1.5 1.14 1.88 2.15.38a26.51 26.51 0 017.88 1.46c.43 1.65 1.4 1.85 2.74 1a11.85 11.85 0 016.41 2.53c.06 1.67.85 2.32 2.49 1.78h.33l.13.3c-.16 1.26.51 1.86 1.67 1.95 1.34.14 2.34-.32 2.34-1.86l2-1.14a1.57 1.57 0 002.06-.74l2 .07c.08 1.34-.49 2.85 1 3.83a6.67 6.67 0 01-.13.88c-1 .08-2.11-.05-2.92.79-4.67 2.15-9.35 4.95-13.25-1.34-.52-.83-2-1.11-3.08-1.54-7.59-3-15.68-3.71-23.67-4.81-8.09-.66-16.18-2-24.26-1.86-23.28.39-46.81-3.23-69.75 3.7 0-1.34-.89-1.84-2.1-1.92z"
        fill="#0d0d0d"
      />
      <path
        d="M309.93 267.54c1.38 2 4.63 1.27 5.66 3.81-21-1.26-42-.8-63.05-.41-.66 0-1.32.08-2 .12-6-.53-11.92-.59-17.58 1.92l-5.4.19a12.17 12.17 0 00-8 1.45l-6 1.09-1.08-.6-1-3c6-1.07 12.09-2 18.08-3.24 25-5.29 50-6.31 74.94.82 2.08.57 4.87 1.61 5.43-2.15z"
        fill="#d6d6d6"
      />
      <path
        d="M156.51 344.54c-4.69 7.51-12.87 8.56-20.29 9.86-26 4.57-52.25 3.78-78.48 1.26-10.13-1-19.7-2.71-27.37-10.18-2.2-2.14-2.58-1.73-3.47 4.16-3.62-3.93-2-8.74-2.15-13.23a1.94 1.94 0 011-1.46c1-.39 1.44.34 1.74 1.2 4.73 13.72 17 16 28.67 17.17 18.8 1.88 37.78 1.65 56.69 1.17 6.6-.17 13.38-.08 19.77-1.26 7.11-1.31 14.64-2.58 20.67-7.46.87-.69 2.15-.83 3.22-1.23zM203.46 330.68c-2-.43-1.93-2-1.86-3.5.57-11.22-1-22.38-1-33.58l4 2.28v-4.22a6 6 0 014.98-5.06h3.05c-2.1 2.76-6.46 4.21-5.17 8.93-.4 12.19-.77 24.39 1.58 36.47-.51 1.32-.34 2.34 1.25 2.69a21.68 21.68 0 009.29 6.31c1.19 2 2.78 2.82 5 1.64l3 .4c4.86 4.3 10.43 2.5 15.87 1.83a3.43 3.43 0 01.56-.08c-1.14 4.53-4.79 2.18-7.39 2.7-2.84-1.82-6-.49-9-.94-.72-1.11-1.9-.95-3-1.06-1.45-1.5-3.33-.68-5-.95a2.19 2.19 0 00-2.06-1l-3-1c-.32 0-.64-.06-1-.08l-2-1c-1.1-2.47-4.74-2.79-5.07-5.92-2.16-2.9-2.08-6.42-2.86-9.76 0 1.66-.05 3.28-.17 4.9z"
        fill="#1a1a1a"
      />
      <path
        d="M248.74 30.82c-7.75.77-12.28-4.85-17.42-9-4-3.27-8.07-3.39-12.28-1-7.77 4.32-7.71 4.4-13.62-2.69-1.14-1.45-2.84-2.43-2.84-4.53 2.85-.15 5.3-.07 7.48 2.66 2 2.5 5.24 2.11 7.5-.21 8.18-8.39 16.84-4.41 21.16 5.16 2.7 6 4.83 6.5 10.3 3.18 1.18-.71 2.21-2.3 3.92-.88a4.67 4.67 0 011.75 3.93c0 2.14-1.58 2.19-3.06 2.49a24.53 24.53 0 00-2.89.89z"
        fill="#3c3c3c"
      />
      <path
        d="M321.02 206.5c2.84 2.3.68 5.51 1.53 8.15.23.73-.23 4 2 1a67.11 67.11 0 0114.91-1l.87 1c-.33 6.32.93 12.69-.74 18.95a13.86 13.86 0 01-11.41-3.13l-.5-1.87c1.31-1.25.52-1.72-.74-2-1.2-2.53-2-5.38-3.69-7.52-3.33-4.28-3.6-8.72-2.23-13.58z"
        fill="#4b4b4b"
      />
      <path
        d="M324.9 349.11c-10.6 4.89-21.93 6.45-33.41 7.09-22.12 1.24-44.22 1.41-66.24-1.51-7.48-1-14.53-3.16-19.93-8.9 2.51-.16 4.31 1.57 6.29 2.57a51.71 51.71 0 0020.9 5.15c12.39.67 24.75 3.12 37.17 1.93 14.78-1.41 29.77-.69 44.36-4a33 33 0 007.27-3.09c1.78-.91 3.4-2.12 5.57-1.61z"
        fill="#1a1a1a"
      />
      <path
        d="M32.58 279.47c22.94-6.93 46.47-3.31 69.75-3.7 8.08-.13 16.17 1.2 24.26 1.86l1 2.18c-25.52.19-51-3.37-76.52-1-3.9.35-8.17-.26-11.52 2.7a10.73 10.73 0 00-6.87 3.18 2.36 2.36 0 01-2.1-1.09c-.18-1.82 1.55-2.66 2-4.13zM318.58 277.2c8.68 1.62 10.92 3.58 11.82 10.34h-1.82a16.73 16.73 0 00-12.68-7.67c-7.56-.79-15.12-1.85-22.7-2-19.57-.52-39 2.58-58.63 2v-2.23c4.31-.49 8.69.41 13-.7l3.69.5c2.19-.3 5 1.8 6.37-1.64l54-.18a10.3 10.3 0 006.95 1.58z"
        fill="#4b4b4b"
      />
      <path
        d="M36.67 217.94c2.08-1.2 1.86-3.22 2-5.22.37-6.43-.8-12.77-1-19.17 0-1.35-1.11-3.5 1.56-3.94 2.12 8.44.65 17.14 1.76 25.65a3 3 0 01-.54 1.9c-8.13 11.45-10.25 25.52-16.48 37.79-.49.95-.46 2.4-2 2.55-1.35-1.31-.38-3.08-.9-4.56.63-1.27.24-2.09-1.07-2.53q-.28-5.4-.55-10.8c2.68-.52 6.34 1.51 8-1.21 3.09-5.2 6.3-10.49 7.34-16.66a7.47 7.47 0 001.88-3.8z"
        fill="#666"
      />
      <path
        d="M34.74 221.74c-1 6.17-4.25 11.46-7.34 16.66-1.62 2.72-5.28.69-8 1.21-1.55-5.94-.56-12-.69-18 5.38-2.41 10.7.27 16.03.13z"
        fill="#4b4b4b"
      />
      <path
        d="M197.58 26.7c-.71 5.13-3.15 3-5.26 1.14-4-3.47-7.56-7.29-12.42-9.75a13.52 13.52 0 00-11.47-.63c-3.54 1.38-4.11.29-3.83-2.79 5.33-5.84 18.11-5.41 23 .61 3.14 3.93 6.62 7.62 9.98 11.42zM271.58 51.6c-.1 2-.15 4.27-2.5 4.85s-4-.94-5.2-2.93a23.67 23.67 0 01-1.36-2.59c-3.15-7.36-7.54-9.14-14.9-6-1.9.82-4.5 1.54-5.42-.15-1.06-2-.26-4.52 2.58-5.39a36.89 36.89 0 003.82-.77c9.66-2.91 16.21.88 19.79 10.06.68 1.8 1.1 3.09 3.19 2.92z"
        fill="#3c3c3c"
      />
      <path
        d="M32.67 284.6a10.73 10.73 0 016.87-3.18c0 .73 0 1.45.08 2.18-5.11 3.47-7 8.48-6.92 14.44.09 7-.65 14 1 20.86 1.45 5.85-.81 12.52 3.91 17.62 0 .82.14 1.58 1.09 1.86l2.6-.33 1.22.71c.25 1.57 1.18 2 2.6 1.47l1.43.5 1.15 1.79-1.26.19c-3.85.68-6.3-2.9-9.83-3.22-.44-3.39-5.3-4.76-4.07-8.91l-.45-1.33-.51 1.35v2l-1.91 1c-1.23-1.86-1.09-3.94-1-6 1.47-.12 1.95-1 1.94-2.36q0-8.88-.07-17.74c.45-7.66-1.2-15.49 2.13-22.9z"
        fill="#1a1a1a"
      />
      <path
        d="M296.37 55.6c-3.55-1.35-1.87-5.05-3.26-7.55-5.45-9.77-11.12-13.13-21.71-11.27-3.18-3.27-1.87-5 2-6 9.83-2.51 19.13 3.45 21.33 13.64.77 3.69 2.09 7.29 1.64 11.18zM34.74 221.74c-5.33.14-10.65-2.54-16-.09v-11a68 68 0 0114.88.9l3 6.35a7.47 7.47 0 01-1.88 3.84z"
        fill="#3c3c3c"
      />
      <path
        d="M234.58 277.6v2.22c-4.61 1-9.29 1.66-13.8 3-3.78 1.1-8.47-.23-11.23 3.85a6 6 0 00-4.93 5.07l-5.24.15-4.8-1.29c-.24-2.77-2.74-2-4.24-2.5-2.45-.84-4.27-1.82-3.78-4.81l2 .18a1.79 1.79 0 002.18.93 6 6 0 01.85.15c.33 2.59 1.76 1.42 3 .9h.07c.84 2.45 3 2 4.83 2.15 1.78 1.31 3.35 1.87 3.94-1.1l3.1-3.09c1.36-.48 2.79-.89 3.19-2.58l11.86-1.7a6.84 6.84 0 006-1.54z"
        fill="#3f3f3f"
      />
      <path
        d="M328.23 231.5a13.86 13.86 0 0011.41 3.1c-.07 2.66-.13 5.32-.2 8a1.66 1.66 0 00-.71 2.12c-1.09 4.59.41 9.66-2.55 13.91z"
        fill="#666"
      />
      <path
        d="M336.65 75.6c-2.09 1.5-3.92.39-6-.28a31.92 31.92 0 00-12.62-1.68c-3.52.3-4.53-.89-2.49-4 1.29-1.78 2.53-3.6 4.88-4.12h4.25c6.16.81 10.34 3.95 11.98 10.08z"
        fill="#3f3f3f"
      />
      <path
        d="M282.67 350.78c-.41 1.65-1.67 1.79-3.07 1.79h-28.11c-1.41 0-2.65-.16-3-1.82 3.81-.52 7.82.45 11.52-1.12-3.06-1.54-6.19-.92-9.26-1.06-2.66-.11-4.95-.62-5.51-3.75l5.33.14c.68 2.34 2.64 1.59 4.16 1.6 7.14.07 14.29 0 21.44.07 1.62 0 3.88-.92 4.36 1.91h-16.37v2.24zM176.52 293.4c-13 4.55-13 4.55-13.64 19-.29 6.94-.21 13.89-.63 20.82-.27 4.45-1.49 8.69-5.7 11.27 6.44-12.7 3.52-26.37 4-39.66.32-8.84 7.03-13.85 15.97-11.43z"
        fill="#1a1a1a"
      />
      <path
        d="M127.58 279.81l-1-2.21c8 1.1 16.08 1.77 23.67 4.81 1.08.43 2.56.71 3.08 1.54 3.9 6.29 8.58 3.49 13.25 1.34 1.45 1.76.24 3.52 0 5.28l-2 .15c-1.72-2-2.24-.29-2.9 1a21.73 21.73 0 01-7.1-1.12 16.26 16.26 0 00-12.21-7.26c-4.99-.59-10.21-.93-14.79-3.53z"
        fill="#3f3f3f"
      />
      <path
        d="M157.58 325.6q0 3-.05 6c-4.47-.4-4 3.38-5 5.9a1.84 1.84 0 00-2 2l-15 6-2.95 1.1-10.9.14-6.08-.1v-1c5.41-.43 11.07.91 16.07-2.32 7.94-1.51 15.63-3.44 19.61-11.63 1.29-.48 1.61-1.14.38-2.07l.41-5.26 1.51.24h2a2.07 2.07 0 002 1zM203.28 343.91c-4.92-2.12-5.7-6.5-5.87-11.08-.35-9.61-.3-19.24-.4-28.85-.06-5.46-2.17-7.85-6.68-9.36-.93-.31-1.81-.76-2.72-1.15 8.53-.41 11 1.68 10.94 9.53a254.23 254.23 0 001.76 34.6c.36 2.73 3.46 3.57 2.97 6.31z"
        fill="#1a1a1a"
      />
      <path
        d="M330.27 330.6c-.13 3.76-2.06 6.84-3.75 10h-1c-3.68-.84-10.38 2.52-12 6h-9.94c.2-2.18-2.18-1.68-2.95-2.85 1.66-1.37 3.75-.88 5.63-1.28 5.43-1.14 11-1.86 15.34-5.89 1.39 0 2.82 0 2.93-1.93a2 2 0 002-2.07 1.85 1.85 0 002-2z"
        fill="#282828"
      />
      <path
        d="M48.58 63.67c-.29 2.46-2.23 1.75-3.73 2-4.67.87-9.27 1.94-11.3 7.06-1.65-.32-3.87.8-4.75-1.47-.78-2 .12-3.9 1.28-5.53 2.7-3.8 6.48-4.77 10.87-3.85 2.63.58 5.11 1.21 7.63 1.79z"
        fill="#3c3c3c"
      />
      <path
        d="M186.58 283.3c-.48 3 1.34 4 3.79 4.81 1.5.51 4-.27 4.24 2.5-6.95-1.82-14.08-.56-21.1-1.23q.08-3 .14-6.06a25 25 0 0112.93-.02zM33.64 211.6a68 68 0 00-14.88-.9c0-2.34-.07-4.69-.11-7 1.16 0 2.33 0 3.49-.08 9.14-.87 9.14-.88 11.5 7.98z"
        fill="#282828"
      />
      <path
        d="M80.51 350.81l-6.93-.21v-3a60.52 60.52 0 007.29.92c10.88.09 21.76 0 32.64 0l1.07.08 1 2-3.93.17zM35.39 79.42c4.45 2.56.21 3.53-1 3.68-5.69.68-11.1 3.28-17 2.49 1.06-4.59 4.75-5.53 8.61-5.92 3.09-.31 6.25-.18 9.39-.25z"
        fill="#3c3c3c"
      />
      <path
        d="M157.58 325.6a2.07 2.07 0 01-2-1c0-5.42.13-10.85 0-16.26-.17-5.91.81-11.9-1-17.72a21.73 21.73 0 007.11 1.13c-4.63 2.71-4.17 7.18-4.12 11.58.06 7.41.01 14.83.01 22.27z"
        fill="#282828"
      />
      <path
        d="M339.51 214.65a67.11 67.11 0 00-14.91 1c-.09-2 1.26-3.38 1.94-5.05 4.21-2.1 8.67-1 13.05-1 .05.65.1 1.3.14 1.95-.07 1.05-.15 2.05-.22 3.1z"
        fill="#2e2e2e"
      />
      <path
        d="M328.58 287.54h1.8c2.17 2 1.18 4.69 1.09 7-.23 5.69 1.16 11.49-1 17.07h-1.89z"
        fill="#202020"
      />
      <path
        d="M36.66 339.53c3.53.32 6 3.9 9.83 3.22a1.94 1.94 0 002.09 1.85l3 1a2.68 2.68 0 00-.06 2.95l.08.15-4.92-.19c-.47-1.91-1.47-2.41-3.12-1.17-1.05 0-2.17.29-2.89-.83-.42-2.25-2.28-2.53-4-3l-2-2c.66-.65 1.32-1.32 1.99-1.98z"
        fill="#3c3c3c"
      />
      <path
        d="M326.91 382.6l3.72-28.85 1.7-.51c0 9.44-1.93 18.63-3.75 27.84a1.76 1.76 0 01-1.67 1.52z"
        fill="#1a1a1a"
      />
      <path
        d="M135.58 345.54l15-6 1.1 1.08c-1.17 2.89-4.72 3.27-6.19 5.85a18.75 18.75 0 01-9.91 2.13 2.81 2.81 0 010-3.06z"
        fill="#3c3c3c"
      />
      <path
        d="M245.21 344.82c.56 3.13 2.85 3.64 5.51 3.75 3.07.14 6.2-.48 9.26 1.06-3.7 1.57-7.71.6-11.52 1.12l-11.88-.15c0-.33 0-.65-.08-1l.1-2.17c2.6-.52 6.25 1.83 7.39-2.7z"
        fill="#2e2e2e"
      />
      <path
        d="M80.51 350.81h31.17c-.33 1.38-1.28 1.79-2.59 1.79H83.14c-1.29 0-2.27-.42-2.63-1.79zM340.5 201.6c-3.83.38-7.62 1.3-11.54.43-.86-.19-2 .54-2.25-.9s.33-2.07 1.6-2.59c4-1.62 8.11-.66 12.17-.88.01 1.31.01 2.62.02 3.94z"
        fill="#1a1a1a"
      />
      <path
        d="M58.58 349.71l-1.95-.06c-.34-.35-.68-.69-1-1v-2c5.32.46 10.75-.93 16 1l1 3h-8c-1.85-1.79-4.05-.85-6.05-.94z"
        fill="#3c3c3c"
      />
      <path d="M282.67 350.78h-18.49v-2.24h19.47l4.92-1v3.15z" fill="#2e2e2e" />
      <path
        d="M339.58 209.6c-4.38 0-8.84-1.09-13.05 1-.49-3.94 1.36-5.35 5.16-5.07 2.61.2 5.25 0 7.88 0 .01 1.36.01 2.72.01 4.07z"
        fill="#282828"
      />
      <path
        d="M32.67 284.6c-3.33 7.37-1.68 15.2-2.13 22.83h-1.71a133.76 133.76 0 01.75-21.73 7.48 7.48 0 011-2.14 2.36 2.36 0 002.09 1.04z"
        fill="#3c3c3c"
      />
      <path
        d="M324.9 349.11l2-2.37c2.67-.92 2.26-4.39 4.61-5.58l2 .45v2.95c-1.59 1-.85 2.63-.94 4-.22.7-.44 1.41-.67 2.11a14.86 14.86 0 01-7-1.56z"
        fill="#d6d6d6"
      />
      <path
        d="M325.44 273.77c.49 0 1.12-.23 1.44 0 5.48 4 7.39.43 8.82-4.15 1.82 3-1 5.93-.27 8.94l-1.92 1.75z"
        fill="#666"
      />
      <path
        d="M328.58 311.6h1.93q-.12 9.48-.23 18.94l-1.7.06h-1a121.53 121.53 0 001-19z"
        fill="#2e2e2e"
      />
      <path
        d="M28.83 307.44h1.71q0 8.86.07 17.74c0 1.34-.47 2.24-1.94 2.36 1.11-6.67-.9-13.4.16-20.1z"
        fill="#202020"
      />
      <path
        d="M312.58 53.65c-1.23 1.95-2.51 4-4.83 1.21-1-1.16-2.21-1.18-3.49-1.27.32-1.67-.24-3.87 2.55-4 3-.15 5.2.78 5.77 4.06z"
        fill="#3c3c3c"
      />
      <path
        d="M303.58 346.6h2.95v1.94c-1.35.09-2.79 0-3.29 1.74l-4.62.07c-.6-2.33-2.44-1.52-4-1.55l-2.16-.09c.08-.65.15-1.3.23-2z"
        fill="#4b4b4b"
      />
      <path
        d="M232.98 272.97c5.66-2.5 11.59-2.44 17.58-1.91l-.98 1.54h-2c-4.87.25-9.7 1.87-14.6.37z"
        fill="#3f3f3f"
      />
      <path
        d="M206.58 335.6c.33 3.13 4 3.45 5.07 5.92a1.7 1.7 0 002 1c.32 0 .64 0 1 .08v3.92c-2.85-1.72-5.89-3.18-8.05-5.86a1.78 1.78 0 00-1.95-2l-.09-2z"
        fill="#2e2e2e"
      />
      <path
        d="M121.68 346.75l10.9-.15v2c-2.72 2-6.35-.22-9 2h-2c.06-1.33.08-2.59.1-3.85zM313.58 346.6c1.6-3.49 8.3-6.85 12-6a22.49 22.49 0 00-6 5 6.76 6.76 0 01-3.9 1.18l-2-.1z"
        fill="#3c3c3c"
      />
      <path
        d="M16.68 109.6c3.18.53 6.39 1 9 3.18-.08 1.53-.23 3.47-2.36 2.55-2.74-1.2-6.29-1.73-6.64-5.73z"
        fill="#121212"
      />
      <path
        d="M236.58 347.49c0 .72-.07 1.45-.1 2.17-1.08 0-2.21-.2-2.92.94l-5-.05a2 2 0 00-1-1.93v-2.07c3.02.45 6.18-.88 9.02.94z"
        fill="#282828"
      />
      <path
        d="M168.58 24.6c4.5 2 5.09 5.82 4.87 10.07a10.37 10.37 0 01-4.87-10.07z"
        fill="#121212"
      />
      <path
        d="M121.68 346.75c0 1.26 0 2.52-.07 3.79l-6 .06-1-2a2 2 0 001-1.93z"
        fill="#2e2e2e"
      />
      <path
        d="M28.58 112.8c4.16.33 8.9-1.77 12 2.84-3.2-.38-6.32-1.38-9.61-1a2 2 0 01-2.39-1.84z"
        fill="#121212"
      />
      <path
        d="M123.58 350.6c2.68-2.18 6.31 0 9-2l2.07.12c-3.21 3.36-6.97 3.57-11.07 1.88z"
        fill="#1a1a1a"
      />
      <path
        d="M36.66 339.53c-.67.66-1.33 1.33-2 2l-1.08-.93c.18-1.74-.16-3.24-2-4v-4-2h1c-1.22 4.17 3.64 5.54 4.08 8.93z"
        fill="#2e2e2e"
      />
      <path
        d="M152.58 337.52c1-2.52.51-6.3 5-5.9v2.92a1.75 1.75 0 00-1.8 2.13 2 2 0 01-1.93 2.11zM219.58 344.54c1.68.27 3.56-.55 5 .95l-.06 3.16-5-.11-.09-1.84z"
        fill="#282828"
      />
      <path
        d="M22.89 279.89c1.86 2 3.14.13 4.59-.67 0 .33.08.65.08 1 0 2.64-1.76 5-3.8 4.74s-.9-3.26-.87-5.07z"
        fill="#0d0d0d"
      />
      <path
        d="M173.58 283.32q-.06 3-.14 6.06h-1.8c-.4-1.77-2.84-2.65-2.16-4.89a6.67 6.67 0 00.13-.88z"
        fill="#3f3f3f"
      />
      <path
        d="M169.51 284.53c-.68 2.24 1.76 3.12 2.16 4.89l-5.09 1.18c.25-1.76 1.46-3.52 0-5.28.82-.84 1.9-.72 2.93-.79z"
        fill="#282828"
      />
      <path
        d="M145.48 346.48c1.47-2.58 5-3 6.19-5.85H153.58c-1 4.29-4.44 5.21-8.1 5.85z"
        fill="#1a1a1a"
      />
      <path
        d="M206.58 335.6l-2.11 1c-1.71-1.74-.63-4-1-5.93.08-1.62.17-3.24.26-4.86.77 3.35.69 6.87 2.85 9.79z"
        fill="#282828"
      />
      <path
        d="M27.39 355.65a34.66 34.66 0 011.73 9c-2.54-2.63-3.32-5.59-1.73-9zM319.52 345.6a22.49 22.49 0 016-5h1c-.81 3.77-3.62 4.77-7 5z"
        fill="#1a1a1a"
      />
      <path
        d="M292.74 346.77c-.08.66-.15 1.31-.23 2v1.89h-4v-3.15c1.24-1.36 2.77-.85 4.23-.74z"
        fill="#282828"
      />
      <path
        d="M247.58 272.6h2c-.17 1.56 1.36 2 2 3-.12.59-.23 1.19-.35 1.78l-3.69-.49c.04-1.44.04-2.86.04-4.29z"
        fill="#0d0d0d"
      />
      <path d="M199.37 291.81l5.24-.15v4.22l-4.03-2.28z" fill="#282828" />
      <path
        d="M11.66 96.6c1.5 2.12 1 4.75 1.82 7.06-3.17-1.65-3.67-4.06-1.82-7.06z"
        fill="#121212"
      />
      <path d="M306.58 348.6v-1.94h7l.06.07-1.13 1.87-3.9.15z" fill="#3c3c3c" />
      <path
        d="M318.58 277.2a10.3 10.3 0 01-7-1.66c2.77-1.32 5-.43 7 1.66z"
        fill="#0d0d0d"
      />
      <path
        d="M294.67 348.82c1.51 0 3.35-.78 4 1.55-1.24 1.65-2.62 1.56-4.07.29z"
        fill="#1a1a1a"
      />
      <path
        d="M251.21 277.36c.12-.59.23-1.19.35-1.78l6 .14c-1.36 3.44-4.16 1.34-6.35 1.64z"
        fill="#3f3f3f"
      />
      <path
        d="M58.58 349.71c2.05.09 4.23-.85 6.06.83-2.25 1.21-4.46 2.33-6.06-.83zM333.49 341.6l-2-.45c.25-1.3-.45-3.68 1.68-3.25s1.74 2.31.32 3.7z"
        fill="#1a1a1a"
      />
      <path
        d="M333.51 280.3l1.92-1.75c1.38 1.09 1.69 2.67.32 3.58-1.6 1.07-2.12-.41-2.24-1.83z"
        fill="#0d0d0d"
      />
      <path d="M214.58 346.49v-3.92l3 1v3l-.07.17z" fill="#282828" />
      <path
        d="M55.58 348.6c.33.35.67.69 1 1-2 1.25-3.84 2-5-1l-.08-.15zM31.58 336.6c1.8.8 2.14 2.3 2 4-2.5-.26-3.07-1.89-2.89-4.06z"
        fill="#1a1a1a"
      />
      <path
        d="M113.58 13.6c-1.65 1.53-3.32 1.48-5 .06a3.4 3.4 0 015-.06z"
        fill="#282828"
      />
      <path
        d="M306.58 348.6l2.08.14c-1 3.09-3.43 1.58-5.37 1.61.45-1.75 1.89-1.7 3.29-1.75z"
        fill="#1a1a1a"
      />
      <path
        d="M172.58 43.65c-1.9-.1-2.36-1.61-2.95-3h3.89c-.31.95-.62 2-.94 3z"
        fill="#121212"
      />
      <path
        d="M224.58 348.65l.06-3.16c1.08.11 2.26-.05 3 1.06v2.07l-2.12.13z"
        fill="#2e2e2e"
      />
      <path
        d="M332.58 348.6c.09-1.39-.65-3 .94-4 1.42 1.72 1.84 3.23-.94 4zM36.67 343.52c1.76.43 3.62.71 4 3-1.87-.25-3.74-.53-4-3z"
        fill="#1a1a1a"
      />
      <path
        d="M21.58 265.6c1.15 1.21 1.05 2.62.66 4.08-2.24-1.02-1.99-2.46-.66-4.08z"
        fill="#3c3c3c"
      />
      <path
        d="M339.51 214.65c.07-1 .15-2.06.22-3.09 2.63 1 2.24 2.47.65 4.12z"
        fill="#121212"
      />
      <path
        d="M324.67 65.53h-4.25c1.41-2.69 2.83-2.64 4.25 0z"
        fill="#282828"
      />
      <path
        d="M317.45 271.81c1.5-.39 3-.63 4.09.82-.64 1.42-2 .55-3 1-.35-.62-.72-1.22-1.09-1.82z"
        fill="#666"
      />
      <path
        d="M134.69 348.73l-2.11-.13v-2l3-1.07a2.81 2.81 0 000 3z"
        fill="#2e2e2e"
      />
      <path
        d="M163.58 19.74c2 0 2.91 1 3.06 2.91a2.82 2.82 0 01-3.06-2.91z"
        fill="#121212"
      />
      <path
        d="M225.46 348.75l2.12-.15a2 2 0 011 1.93c-1.43.07-2.8.07-3.12-1.78zM233.58 350.6c.71-1.14 1.84-1 2.92-.94 0 .33.07.65.08 1-1 1.17-2 1.15-3-.06zM43.58 347.31c1.65-1.24 2.65-.74 3.12 1.17-1.2.12-2.46.29-3.12-1.17z"
        fill="#1a1a1a"
      />
      <path
        d="M94.66 25.8c-.18.76-.34 1.54-1.3 1.69-1.22.18-1.6-.65-1.84-1.61z"
        fill="#282828"
      />
      <path d="M72.58 350.6l-1-3h2v3h-.49z" fill="#2e2e2e" />
      <path d="M31.58 336.6h-.93c-.34-1-.68-2-1-3l1.91-1z" fill="#202020" />
      <path
        d="M161.7 291.7c.66-1.24 1.18-2.92 2.9-1-.74 1.07-1.85.95-2.9 1zM98.47 22.53a2.57 2.57 0 01-2 3c.11-1.35.21-2.72 2-3z"
        fill="#282828"
      />
      <path
        d="M312.51 348.6l1.07-2 2 .1c-.24 1.9-1.65 1.9-3.07 1.9z"
        fill="#1a1a1a"
      />
      <path
        d="M338.73 244.72a1.66 1.66 0 01.71-2.12c1.55 1.31.63 1.79-.71 2.12z"
        fill="#2e2e2e"
      />
      <path
        d="M205.36 345.84a3.13 3.13 0 01-2.11-2c1.61-.24 2.33.37 2.11 2zM29.58 370.6a1.76 1.76 0 01.67 2c-1.37-.29-2.07-.8-.67-2zM30.58 375.6a1.79 1.79 0 01.23 2c-1.23-.53-1.49-1.18-.23-2z"
        fill="#1a1a1a"
      />
      <path
        d="M13.47 92.6c.16 1.35-.53 2-1.8 2.12a1.8 1.8 0 011.8-2.12z"
        fill="#121212"
      />
      <path
        d="M155.69 336.67a1.75 1.75 0 011.8-2.13 1.82 1.82 0 01-1.8 2.13z"
        fill="#1a1a1a"
      />
      <path
        d="M19.99 250.41c1.31.44 1.7 1.26 1.07 2.53a1.85 1.85 0 01-1.07-2.53z"
        fill="#3c3c3c"
      />
      <path
        d="M219.51 346.7l.09 1.84a1.81 1.81 0 01-2.09-1.77l.07-.17z"
        fill="#1a1a1a"
      />
      <path d="M294.67 348.82l-.12 1.84h-2v-1.89z" fill="#2e2e2e" />
      <path
        d="M204.58 338.6a1.78 1.78 0 011.95 2 1.88 1.88 0 01-1.95-2z"
        fill="#1a1a1a"
      />
      <path d="M153.58 340.6h-1v-3l1.2 1.26z" fill="#2e2e2e" />
      <path
        d="M332.33 353.25l-1.7.51c-.2-.9.21-1.28 1.08-1.29z"
        fill="#d6d6d6"
      />
      <path fill="#666" d="M318.54 273.59l-.09.12.11-.1-.02-.02z" />
      <path
        d="M309.93 267.54c-.56 3.76-3.35 2.72-5.37 2.14-24.92-7.08-49.89-6.08-74.98-.82-6 1.27-12.05 2.17-18.08 3.24l-3.7-.65a2.53 2.53 0 00-2.07-2.18c-1.33-12.12 1-17.83 9.58-20.21 11-3 22.13-6.07 33.77-5.33 8.59.54 17.2 0 25.82 1.2 14.72 2.11 27.28 7 34 21.49a5.34 5.34 0 001.03 1.12z"
        fill="#3f3f3f"
      />
      <path
        d="M136.47 274.06a47.2 47.2 0 00-10.89-1.17c-1.07-1.62-2.61-1.06-4.06-.89l-2.94-.4c-3-1.55-6-1.22-9.12-.56l-14.88-.36c-4-1.72-8.15-.73-12.22-.85-7.48-.21-15-.06-22.45-.06-.07-.43-.13-.85-.2-1.28 5-.88 10-1.92 15-2.6a146.09 146.09 0 0140.28.55 203.54 203.54 0 0121.33 4.21c3.79 1 7.56.51 11.3 1.08 0 2.11 1.58 2.39 3.09 3.15 2.48 1.23 5.86 1.32 6.88 4.72l-1.94-.14a11.85 11.85 0 00-6.41-2.53 2.12 2.12 0 00-2.74-1 26.51 26.51 0 00-7.88-1.46 1.69 1.69 0 00-2.15-.41z"
        fill="#d6d6d6"
      />
      <path
        d="M173.58 283.32l-4 .33c-1.49-1-.92-2.49-1-3.83a8.11 8.11 0 015-1 20 20 0 0011.92 0 24.87 24.87 0 0110 1.93c2 .84 4.22 2 6.49.45 2.2.65 3.25-.39 3.62-2.44a7.57 7.57 0 015-2.06c1.57 1.5 2.57 1.16 3-.95l6-1.09c2 2.26 4-.77 6 .09.9 3.49-3.55 2.15-4 4.42l-11.82 1.75c-4.25-3.08-2.67 1-3.18 2.58l-3.1 3.09-4 .11-4.8-1.16h-.07c-.79-1-1.93-.86-3-.9a6 6 0 00-.85-.15c-.38-1.12-.77-2.23-2.18-.93l-2-.18a25 25 0 00-13.03-.06z"
        fill="#060606"
      />
      <path
        d="M185.58 278.78a20 20 0 01-11.92 0 16.35 16.35 0 0111.92 0z"
        fill="#3f3f3f"
      />
      <path
        d="M318.44 174.6c1.87 1.66 2.81 3.53 1.4 5.95a7.58 7.58 0 01-1.4-5.95zM320.51 185.6a4.85 4.85 0 01.24 6c-1.04-2-.71-4-.24-6z"
        fill="#4b4b4b"
      />
      <path
        d="M162.58 281.6c-.05 1.51-1 2-2.32 1.89-1.16-.09-1.83-.69-1.67-1.95zM205.63 278.72c-.37 2.05-1.42 3.09-3.62 2.44.51-1.85 1.57-2.86 3.62-2.44zM213.58 275.71c-.45 2.11-1.45 2.45-3 .95.14-1.15 1.35-1 1.94-1.55z"
        fill="#3f3f3f"
      />
      <path
        d="M282.01 149.12c1.5-.6 2.9-.84 3.67 1.07a3.77 3.77 0 01-3.67-1.07z"
        fill="#4b4b4b"
      />
      <path
        d="M326.94 227.6c1.26.31 2.05.78.74 2a1.69 1.69 0 01-.74-2z"
        fill="#666"
      />
      <path
        d="M155.65 279.46l1.93.14c.18.55.36 1.1.55 1.64-1.63.54-2.42-.11-2.48-1.78z"
        fill="#3f3f3f"
      />
      <path
        d="M166.58 279.75a1.57 1.57 0 01-2.06.74c.26-1.55.79-2.24 2.06-.74zM205.77 269.27a2.53 2.53 0 012.07 2.18c-1.58.15-2.26-.6-2.07-2.18z"
        fill="#d6d6d6"
      />
      <path
        d="M316.92 170.52c1.58.36 1.78 1.32 1.16 2.64a2.83 2.83 0 01-1.16-2.64zM312.49 164.68c1.45-.09 2.1.6 2 2a2.52 2.52 0 01-2-2z"
        fill="#4b4b4b"
      />
      <path
        d="M310.27 162.81c1.48-.24 2.24.37 2.23 1.88a2.29 2.29 0 01-2.23-1.88zM288.95 151.23c1.3-.69 2.26-.5 2.71 1a2.27 2.27 0 01-2.71-1z"
        fill="#4b4b4b"
      />
      <path
        d="M128.58 53.78c.12 1.75 3.19 3.12.73 5.16-2.1 1.75-3.33-.53-4.71-1.35-4.58-2.72-8.79-2.05-12 2.17-.5.66-1 1.33-1.44 2-4 5.95-4.76 6.11-10.91 2.23a11.67 11.67 0 00-15.67 3.61 10 10 0 01-1 1.66c-1.25 1.23-2.29 3.07-4.56 2-2.75-1.28-1.82-3.45-1.3-5.52 1.8-.26 2.22-1.76 2.82-3.13 3.62-8.21 11-12.15 18.88-6 2 1.57 3.69 5.4 6 4.33 1.83-.84 2.18-4.74 3.37-7.18 3.58-7.35 12.72-8.51 17-2.47.63 1.06 1.19 2.38 2.79 2.49z"
        fill="#3c3c3c"
      />
      <path
        d="M263.58 81.6c-2.34-4.8 1.46-6.75 4.44-8.44a15.3 15.3 0 0120.43 5.33c1.71 2.65 3 4.26 6.9 3.41 5.61-1.23 13.4 4.79 15.23 10.51 1.48 4.64 2.53 9.2.06 13.86-.48.91.4 2.74-1.23 2.8s-1.75-1.61-1.82-2.95c0-.5 0-1-.05-1.49 0-1 .06-2 0-3-.26-10.29-6.88-15.31-16.75-12.54-2.55.71-3.69.58-4.52-2.44-2.5-9-11.16-13.05-19.11-6.56-.95.81-2.38 1.03-3.58 1.51zM128.58 53.78c-1.58-.11-2.14-1.43-2.88-2.49-4.26-6-13.4-4.88-17 2.47-1.19 2.44-1.54 6.34-3.37 7.18-2.32 1.07-4-2.76-6-4.33-7.85-6.19-15.26-2.25-18.88 6-.6 1.37-1 2.87-2.82 3.13-2.63-7.08 3.46-15.89 11.82-16.95 1.79-.23 3.9-.6 5.41.08 5.76 2.59 9.72.64 13.2-4.07s8.73-3.7 13.21-2.49 6.95 5.35 8.17 9.87c.14.42-.57 1.05-.86 1.6z"
        fill="#0d0d0d"
      />
      <path
        d="M263.58 81.6c1.21-.49 2.64-.71 3.61-1.49 7.95-6.49 16.61-2.45 19.11 6.56.83 3 2 3.15 4.52 2.44 9.87-2.77 16.49 2.25 16.75 12.54v3c-2.32.36-3.08-1.26-4-2.93-3.37-6.25-5.54-7.48-12.55-6.26-3.67.64-5.92-.38-7.7-3.57-3.27-5.85-8.13-7.95-15.09-6.54-3.3.65-4.78-.42-4.65-3.75z"
        fill="#3c3c3c"
      />
      <path
        d="M74.64 440.54h-1.12a1.73 1.73 0 00-1-1.89c0-1.49.16-3.05-2.09-2.87-.89-1.65-1.56-4 .29-4.61 2.33-.76 2.43 2.08 2.88 3.63.52 1.89 1.66 3.67 1.04 5.74z"
        fill="#666"
      />
      <path
        d="M279.58 444.6c1.22.42 2.86-2 3.67.33a2.4 2.4 0 01-1.65 3.11c-2 .26-2-1.66-2.3-3.07v-.37zM296.84 429.6c1.89-.7 3.19-.19 3.5 1.89.08.53-.34 1.63-.57 1.64-1.85.07-3.11-.75-3.3-2.75a.5.5 0 01.37-.78zM77.2 446.36c-3.66 0-2.35-2.58-2.36-4.49a5.49 5.49 0 012.36 4.49z"
        fill="#202020"
      />
      <path
        d="M80.58 449.99c-1-.42-2.16-.56-2.16-2l3.32-.21.09 1.89z"
        fill="#666"
      />
      <path
        d="M249.42 422.14c-.08.73.26 1.88-.94 1.78s-.76-1.2-.8-2z"
        fill="#202020"
      />
      <path d="M70.31 439.24c.3 2.31.3 2.31-1.64 1.72z" fill="#666" />
      <path
        d="M135.48 422.26c-.08.71.18 1.77-.94 1.72s-.81-1.1-.91-1.82z"
        fill="#202020"
      />
      <path
        d="M171.49 446.8c3.68.91 7.3 2.28 11.21 1.34l1.85-.23c16.22-.43 32.34-1.59 48.1-5.81a4.82 4.82 0 003.91-.38c2.15-.15 4.3-.46 6.45-.42 6 .09 12 3.88 13.25 9.57 1.84 8.33 1.53 16.83-5 23.32-7.19 7.14-14.6 14.18-24.34 17.91-11.85 4.5-24.34 4.65-32.93-5.5-1.43-1.69-3-1.82-4.85-1.83-7.15 0-14.31 0-21.46-.16a4 4 0 00-3.54 1.28c-11.13 13.08-30.61 9.79-41 2.52a127.07 127.07 0 01-16.22-13.95c-6.25-6.18-8.34-13-5.24-21.24 3.3-8.82 10-11.87 18.9-11.18l2.12.31c15.47 3.21 31.06 5.11 46.89 4.29z"
        fill="#fafafa"
      />
      <path
        d="M73.95 481.91c-4.8-9.06-8.63-18.36-8.59-28.74 4.69 9.06 6.72 18.89 8.59 28.74zM273.23 477.48c2.68 6.62-.07 18.12-5.62 23.6.09-8.48 4.18-15.48 5.62-23.6z"
        fill="#0d0d0d"
      />
      <path
        d="M270.75 445.6c.51 1 .66 1.74 1.13 2 3.54 2.39 3.47 3.17-1 4.21-3 .71-5.57 3.43-8.31 5.28-1.08.73-2.08 2-3.18 0-1.26-2.25.39-2.13 1.85-2.78 3.9-1.71 6.13-5.39 9.51-8.71zM97.32 461.15c-1.07-.37-2.07-1.69-1.47-2.14 2.16-1.59-.23-4.71 2.26-5.92a1.29 1.29 0 011.17.48c.88 2.21-1 4.11-.77 6.29.07.74-.43 1.18-1.19 1.29zM87.35 449.98c3.12 1.83 5 2.84 5 5.37 0 .27-.74.87-1 .79-2.28-.77-2.91-2.74-4-6.16zM122.69 442.32l-2.12-.31c.09-1.12 0-2.56 1.69-2.26 2.01.36.69 1.63.43 2.57zM236.58 441.72a4.82 4.82 0 01-3.91.38c0-1.25.19-2.32 1.75-2.43s2.05.7 2.16 2.05zM172.05 487.36c.08 1-.66 1-1.28 1.08s-1.4 0-1.57-.75c-.22-.93.62-1 1.24-1.07a1.39 1.39 0 011.61.74zM103.12 443.65c.47.43 1.08.81 1 1a2.79 2.79 0 01-1 1.45c-.6.34-1.37.12-1.19-.78.16-.58.72-1.03 1.19-1.67zM55.58 430.6c-.15 1-.4 2-1.72 1.76-.31-.05-.83-.71-.76-.9.44-1.19 1.57-.76 2.46-.88zM80.58 449.99l1.25-.32c.83.8 1.12 2 0 2.36-1.36.38-1.08-1.17-1.25-2.04zM55.58 430.6l.43-2.23c.37.19 1 .3 1.08.59.55 1.42-.58 1.47-1.49 1.66zM227.15 423.28l-.36.84c-.28-.12-.71-.19-.79-.38s.2-.55.32-.83zM231.15 423.28l-.36.84c-.28-.12-.71-.18-.79-.38s.2-.55.31-.83zM63.19 439.28l-.36.83c-.27-.12-.71-.18-.78-.37s.19-.54.31-.82zM171.49 446.8l-1.91-.2c.28-.53.52-1.49.84-1.51 1.16-.09 1 .94 1.07 1.71zM184.58 447.91l-1.85.23c0-.76-.29-1.83.78-2s.9 1.04 1.07 1.77zM203.21 495.29c-.12.28-.18.71-.38.79s-.54-.2-.81-.32c.12-.27.18-.71.37-.79s.54.2.82.32zM220.3 495.92c.28.12.7.18.79.39s-.2.53-.32.81c-.28-.12-.71-.18-.79-.38s.2-.54.32-.82zM72.52 438.7a1.73 1.73 0 011 1.89c-1.59.01-1.54-.8-1-1.89z"
        fill="#202020"
      />
      <path
        d="M109.48 271.03c3.09-.66 6.16-1 9.12.56-3.14 1.44-6.22 1.95-9.12-.56zM121.49 272c1.45-.17 3-.73 4.06.89-1.67 1.11-3.12 1.26-4.06-.89zM146.5 275.9a2.12 2.12 0 012.74 1c-1.34.85-2.31.7-2.74-1zM136.47 274.06a1.69 1.69 0 012.15.38c-1.04 1.5-1.68 1.16-2.15-.38z"
        fill="#3f3f3f"
      />
      <path
        d="M247.58 272.6v4.26c-4.28 1.1-8.66.2-13 .69h-7c0-1 0-2.05-.05-3.08l.06-1.34 5.4-.19c4.89 1.53 9.72-.09 14.59-.34z"
        fill="#060606"
      />
      <path
        d="M227.58 273.17l-.06 1.34-2 .2c-2-.86-4 2.17-6-.09a12.17 12.17 0 018.06-1.45z"
        fill="#3f3f3f"
      />
      <path
        d="M245.21 344.82h-1.24a2.62 2.62 0 00-.56.09l-15.83-1.87-3-.4a8.26 8.26 0 00-5-1.64 21.68 21.68 0 01-9.29-6.28 3.1 3.1 0 00-1.25-2.69c-2.35-12.08-2-24.28-1.58-36.47a19.85 19.85 0 017.91-8.45l1.21-.51a6.76 6.76 0 004.07-.76 204.56 204.56 0 0024.85-2c2.69 0 5.4.76 8.06-.25 11.35.3 22.68-.06 34-.85 6.37.26 12.74.59 19.07-.53l4 .28a3.55 3.55 0 003 .56l2 .41a26.86 26.86 0 018.75 5.61v.4l.37.17a3.3 3.3 0 001.31 2.75l.6 6.31a1.89 1.89 0 00-.18 2.06q-.4 12.46-.83 24.93l-4.07 10.91c-4.32 4-9.91 4.75-15.34 5.89-1.88.4-4-.09-5.63 1.28l-2 .36a5.41 5.41 0 00-4 .51 49.37 49.37 0 00-11 .25c-11-.2-22-.54-33 .07z"
        fill="#fbfbfb"
      />
      <path
        d="M325.64 325.6q.42-12.47.83-24.93c1.07-.6 1.4-1.27.18-2.06q-.3-3.15-.59-6.31c.57-1.4.44-2.46-1.32-2.75l-.37-.17v-.4c-.93-5-4.33-6.08-8.75-5.61l-2-.41c-.75-1.6-1.77-1.77-3-.56l-4-.28c-5.61-3.24-11.6-1-17.42-1.13-.54 0-1.1 1.08-1.65 1.66-11.32.79-22.65 1.15-34 .85-2.73-1.25-5.43-1.54-8.06.25a204.56 204.56 0 01-24.85 2c-1.7-1.6-3.2-2.11-4.07.76l-1.23.55-2.76-.46h-3c2.76-4.08 7.45-2.75 11.23-3.85 4.51-1.3 9.19-2 13.8-3 19.59.62 39.06-2.48 58.63-2 7.58.2 15.14 1.26 22.7 2a16.73 16.73 0 0112.64 7.79v24.06a121.53 121.53 0 01-1 19l-1.09.07c-.24-1.7.72-3.59-.85-5.07z"
        fill="#0d0d0d"
      />
      <path
        d="M227.58 343.04l15.87 1.84c-5.48.66-11.05 2.46-15.87-1.84zM212.58 286.6l2.74.48a19.85 19.85 0 00-7.91 8.45c-1.28-4.69 3.08-6.14 5.17-8.93zM219.58 341a8.26 8.26 0 015 1.64c-2.26 1.18-3.85.39-5-1.64z"
        fill="#282828"
      />
      <path
        d="M219.51 346.7l-1.93-.1v-3a2.19 2.19 0 012.06 1z"
        fill="#2e2e2e"
      />
      <path
        d="M209 332.03a3.1 3.1 0 011.25 2.69c-1.59-.35-1.76-1.37-1.25-2.69z"
        fill="#4b4b4b"
      />
      <path d="M213.58 342.49a1.7 1.7 0 01-2-1z" fill="#282828" />
      <path
        d="M154.58 290.6c1.82 5.82.84 11.81 1 17.72.14 5.41 0 10.84 0 16.26h-2c-.48-3 1.25-6.18-.94-9a15.17 15.17 0 01.72-7.95c2.5-2.88 1.57-6.49 1-9.41-1.25-6.71-4.93-12.9-12.7-11.91l-2-.49c-.74-1.53-1.45-1.46-2.12.05-6.49 1.54-12.89-.2-19.25-.86-16.17-1.67-32.48-.46-48.58-2.92-.7-1.93-2.39-1.38-3.78-1.44-8.92-.42-17.63 1.12-26.3 3 0-.73 0-1.45-.08-2.18 3.35-3 7.62-2.35 11.52-2.7 25.53-2.32 51 1.24 76.52 1 4.58 2.6 9.8 2.94 14.78 3.54a16.26 16.26 0 0112.21 7.29z"
        fill="#121212"
      />
      <path
        d="M139.65 285.84l2 .49c7.1 2.43 10.72 7.34 10.84 14.91a53.82 53.82 0 00.84 6.41 15.17 15.17 0 00-.75 7.95 14.31 14.31 0 00-.53 8.75l-.37 5.25a1.63 1.63 0 00-.38 2.07c-4 8.19-11.67 10.12-19.61 11.63l-23 1.5a52.05 52.05 0 00-11.16.1c-13.61-1.83-27.33-1.06-41-1.66l-5.47-1a4.26 4.26 0 00-4.45-1.51l-1.43-.5a2.5 2.5 0 00-2.6-1.47l-1.22-.71c-4.33-4.22-5.19-9.5-5.63-15.34-.59-7.77-.28-15.55-1-23.33-.93-9.54 3.22-14.4 12.79-15.47 7.38-.83 14.74-2.29 22.24-1.84 16.1 2.46 32.41 1.25 48.58 2.92 6.36.66 12.76 2.4 19.25.86z"
        fill="#fafafa"
      />
      <path
        d="M69.7 282.11c-7.5-.45-14.86 1-22.24 1.84-9.57 1.07-13.72 5.93-12.79 15.47.77 7.78.46 15.56 1 23.33.44 5.84 1.3 11.12 5.63 15.34l-2.6.34-1.04-1.83c-4.72-5.1-2.46-11.77-3.91-17.62-1.7-6.82-1-13.89-1-20.86-.08-6 1.81-11 6.92-14.44 8.67-1.85 17.38-3.39 26.3-3 1.34.05 3.03-.5 3.73 1.43zM46.58 340.77a4.26 4.26 0 014.45 1.51l-2.41.34a6.77 6.77 0 00-.89-.06z"
        fill="#3c3c3c"
      />
      <path
        d="M47.75 342.6a6.77 6.77 0 01.89.06c0 .67-.05 1.33-.07 2a1.94 1.94 0 01-2.08-1.87z"
        fill="#282828"
      />
      <path
        d="M42.58 338.8a2.5 2.5 0 012.6 1.47c-1.43.49-2.36.1-2.6-1.47z"
        fill="#3c3c3c"
      />
      <path
        d="M37.66 336.6l1.09 1.87c-.95-.33-1.08-1.09-1.09-1.87z"
        fill="#282828"
      />
      <path d="M32.58 330.6h-1l.53-1.29z" fill="#202020" />
      <path
        d="M225.58 274.71l2-.2c0 1 0 2 .05 3.08a6.84 6.84 0 01-6 1.54c.37-2.27 4.82-.93 3.95-4.42zM206.58 283.46c.51-1.54-1.07-5.66 3.18-2.58-.42 1.72-1.85 2.1-3.18 2.58zM199.48 286.66l4-.11c-.59 3-2.16 2.41-3.94 1.1a4.1 4.1 0 00-.06-.99z"
        fill="#0d0d0d"
      />
      <path
        d="M199.48 286.66a4.1 4.1 0 010 1c-1.85-.16-4 .3-4.83-2.15zM191.58 284.6c1.08 0 2.22-.1 3 .9-1.22.48-2.65 1.65-3-.9zM188.58 283.48c1.41-1.3 1.8-.19 2.18.93a1.79 1.79 0 01-2.18-.93zM250.58 344.96c11-.61 22-.27 33-.07l.06 3.61h-3.13c-.48-2.83-2.74-1.89-4.36-1.91-7.15-.09-14.3 0-21.44-.07-1.53.08-3.49.78-4.13-1.56z"
        fill="#282828"
      />
      <path
        d="M108.67 344.81l23-1.5c-5 3.23-10.66 1.89-16.07 2.32h-2.08c-1.59-.28-3.44.69-4.85-.82zM152.09 324.35a14.31 14.31 0 01.49-8.75c2.19 2.8.46 6 .94 9z"
        fill="#3c3c3c"
      />
      <path
        d="M113.58 345.67h2.08v1a2 2 0 01-1 1.93l-1.05-.06c-.03-.94-.03-1.94-.03-2.87zM152.58 337.6v3h-.91l-1.09-1a1.84 1.84 0 012-2z"
        fill="#282828"
      />
      <path
        d="M151.3 331.68a1.63 1.63 0 01.38-2.07c1.23.93.9 1.59-.38 2.07z"
        fill="#3c3c3c"
      />
      <path
        d="M283.63 348.5l-.06-3.61a49.37 49.37 0 0111-.25c1.52 1.29 2.92 1.59 4-.51l2-.36c.77 1.17 3.15.67 2.95 2.85l-10.83.15c-1.46-.11-3-.62-4.19.74z"
        fill="#1a1a1a"
      />
      <path
        d="M325.64 325.6c1.57 1.47.61 3.36.86 5.05v.83c-2.08.17-1.9 1.77-2 3.18-.09 1.94-1.52 1.94-2.92 1.94z"
        fill="#2e2e2e"
      />
      <path
        d="M324.52 334.67c.12-1.41-.06-3 2-3.17v1.1a2 2 0 01-2 2.07z"
        fill="#0d0d0d"
      />
      <path
        d="M326.58 332.6v-1.1-.84l1-.06h1a1.85 1.85 0 01-2 2z"
        fill="#202020"
      />
      <path
        d="M113.58 345.67v2.85c-10.88 0-21.76.09-32.64 0a60.52 60.52 0 01-7.36-.92h-2c-5.23-1.9-10.66-.51-16-1l-4-1-3-1c0-.67 0-1.33.07-2l2.41-.34 5.47 1c.64 1.65 2.12 1.24 3.4 1.4 10.58 1.27 21.22 1 31.85 1 1.91 0 4 .75 5.74-.76a52.05 52.05 0 0111.16-.1c1.4 1.52 3.25.55 4.9.87z"
        fill="#1a1a1a"
      />
      <path
        d="M51.58 345.6l4 1v2l-4-.09a2.68 2.68 0 010-2.91zM287.58 282.66c.55-.58 1.11-1.67 1.65-1.66 5.82.08 11.81-2.11 17.42 1.13-6.37 1.12-12.74.79-19.07.53zM315.58 283.38c4.42-.47 7.82.63 8.75 5.61a26.86 26.86 0 00-8.75-5.61zM245.48 283.76c2.63-1.79 5.33-1.5 8.06-.25-2.66 1.01-5.37.25-8.06.25z"
        fill="#2e2e2e"
      />
      <path
        d="M216.58 286.6c.87-2.87 2.37-2.36 4.07-.76a6.76 6.76 0 01-4.07.76zM298.58 344.13c-1.1 2.1-2.5 1.8-4 .51a5.41 5.41 0 014-.51z"
        fill="#282828"
      />
      <path
        d="M310.58 282.41c1.27-1.21 2.29-1 3 .56a3.55 3.55 0 01-3-.56zM324.74 289.6c1.76.29 1.89 1.35 1.32 2.75a3.28 3.28 0 01-1.32-2.75zM326.65 298.6c1.22.79.89 1.46-.18 2.06a1.89 1.89 0 01.18-2.06z"
        fill="#2e2e2e"
      />
      <path
        d="M153.34 307.65a53.82 53.82 0 01-.84-6.41c-.12-7.57-3.74-12.48-10.84-14.91 7.77-1 11.45 5.2 12.7 11.91.55 2.92 1.48 6.53-1.02 9.41zM139.65 285.84l-2.12.05c.67-1.51 1.38-1.58 2.12-.05z"
        fill="#282828"
      />
      <path
        d="M97.51 344.91c-1.74 1.51-3.83.77-5.74.76-10.63 0-21.27.25-31.85-1-1.28-.16-2.76.25-3.4-1.4 13.66.58 27.38-.19 40.99 1.64z"
        fill="#3c3c3c"
      />
    </svg>
